<svg width="369" height="170" viewBox="0 0 369 170" fill="none" xmlns="http://www.w3.org/2000/svg">
<g clip-path="url(#clip0_2119_2394)">
<g clip-path="url(#clip1_2119_2394)">
<path d="M123.672 0.709662H113.03V0.704834L99.6855 17.6853V27.5829L113.064 44.5634H123.701L106.199 22.6341L123.672 0.709662Z" fill="white"/>
<path d="M97.9668 0.704834H89.6963V44.5634H97.9668V0.704834Z" fill="white"/>
<path d="M141.638 26.3471H158.671V18.4531H141.638H133.367V44.5635H159.26V36.6744H141.638V26.3471Z" fill="white"/>
<path d="M0 8.59879H9.04788V44.5634H17.3184V8.59879H26.3615V0.704834H0V8.59879Z" fill="white"/>
<path d="M55.9237 0C43.6845 0 32.9033 9.95556 32.9033 22.3976C32.9033 35.2211 43.2789 45.2683 55.9817 45.2683C68.6844 45.2683 78.9442 35.1969 78.9442 22.6342C78.9442 9.99901 68.3996 0 55.9237 0ZM55.9865 37.3792C54.036 37.3792 52.1047 36.993 50.3038 36.2494C48.5029 35.5011 46.871 34.4051 45.495 33.0243C44.119 31.6434 43.0279 30.0067 42.2892 28.201C41.5456 26.4001 41.169 24.464 41.1787 22.5183C41.1787 14.5326 48.0105 7.88913 55.9286 7.88913C63.8467 7.88913 70.6784 14.5761 70.6784 22.6921C70.6784 30.8082 63.9481 37.3792 55.9865 37.3792Z" fill="white"/>
<path d="M324.579 17.357H320.36V32.242H303.321L319.394 0.704834H315.15L299.082 32.242V36.0321H320.36V43.8054H324.579V36.0321H328.418V32.242H324.579V17.357Z" fill="white"/>
<path d="M352.36 0.704834C344.428 0.704834 337.943 7.40625 337.943 15.5561C337.943 23.7059 344.239 30.2818 351.539 30.2818C353.113 30.2818 354.373 30.0308 356.198 29.2728L346.441 43.8054H351.225L361.741 28.1961C365.961 21.9389 366.84 19.6648 366.84 15.6189C366.84 7.33866 360.418 0.704834 352.36 0.704834ZM352.36 26.429C346.822 26.429 342.163 21.4367 342.163 15.4982C342.163 9.55959 346.759 4.49973 352.36 4.49973C357.961 4.49973 362.62 9.49199 362.62 15.7492C362.62 21.5623 357.961 26.429 352.36 26.429Z" fill="white"/>
<path d="M159.26 0.704834H133.367V8.59396H159.26V0.704834Z" fill="white"/>
<path d="M275.327 0.704834C273.357 0.71449 271.417 1.1635 269.64 2.01325C267.863 2.86783 266.304 4.10382 265.063 5.63433C262.736 8.41532 261.727 11.5729 261.727 15.8699V28.5099C261.727 32.8069 262.422 35.7762 263.933 38.2434C266.516 42.2893 270.605 44.5634 275.327 44.5634C279.673 44.5634 283.448 42.6659 286.094 39.1269C288.107 36.4087 288.928 33.3139 288.928 28.5099V15.8699C288.928 7.08759 283.197 0.704834 275.327 0.704834ZM284.708 27.8195C284.708 31.6723 284.206 34.4533 283.197 36.1625C281.435 39.1318 278.664 40.7733 275.327 40.7733C272.242 40.7733 269.79 39.4456 267.902 36.8577C266.516 34.9603 265.951 32.1793 265.951 27.8195V16.8211C265.951 13.789 266.646 10.6266 267.588 9.04781C269.225 6.39235 272.435 4.4949 275.332 4.4949C277.978 4.4949 280.938 6.07369 282.637 8.35256C283.96 10.1196 284.713 13.2821 284.713 16.8211V27.8147L284.708 27.8195Z" fill="white"/>
<path d="M250.198 13.6008C250.198 6.45999 244.341 0.709717 237.099 0.709717C229.104 0.709717 223.498 6.39723 223.498 14.5519V15.1216H227.655C227.718 12.4662 227.969 10.8246 228.79 9.30858C230.301 6.40206 233.512 4.50461 236.848 4.50461C241.821 4.50461 245.978 8.61333 245.978 13.4752C245.978 15.7493 244.974 18.0909 243.018 20.4905C241.947 21.8182 241.068 22.7018 237.983 25.671L223.185 40.0202V43.8102H250.005V40.0202H228.848L242.511 26.9408C248.242 21.5044 250.193 18.0281 250.193 13.6056L250.198 13.6008Z" fill="white"/>
<path d="M198.927 28.563L180.161 0.704834H171.494V44.5634H179.765V14.6919L199.941 44.5634H207.198V0.704834H198.927V28.563Z" fill="white"/>
<path d="M343.762 168.257V58.2683H368.066V168.257H343.762Z" fill="white"/>
<path d="M174.333 168.257V58.2683H202.983C207.69 58.2683 212.127 58.6304 216.289 59.3546C220.543 60.0789 224.299 61.4838 227.558 63.5647C230.817 65.5539 233.352 68.4508 235.162 72.2553C237.065 75.9682 238.016 80.9025 238.016 87.0583C238.016 91.4954 237.335 95.2516 235.978 98.3271C234.708 101.316 232.854 103.715 230.411 105.526C228.055 107.336 225.207 108.558 221.856 109.19C226.11 109.736 229.687 111.136 232.584 113.4C235.481 115.573 237.654 118.513 239.102 122.226C240.642 125.939 241.41 130.42 241.41 135.668C241.41 141.37 240.642 146.304 239.102 150.471C237.654 154.546 235.524 157.896 232.719 160.518C229.914 163.144 226.428 165.09 222.262 166.355C218.187 167.625 213.479 168.257 208.139 168.257H174.328H174.333ZM198.642 151.282H203.804C209.144 151.282 212.813 149.925 214.802 147.207C216.883 144.489 217.926 140.51 217.926 135.257C217.926 131.091 217.472 127.788 216.569 125.345C215.662 122.902 214.17 121.135 212.089 120.049C210.008 118.871 207.203 118.282 203.669 118.282H198.642V151.277V151.282ZM198.642 102.262H203.393C207.106 102.262 209.911 101.716 211.814 100.63C213.716 99.4521 214.981 97.7767 215.613 95.6041C216.338 93.4314 216.7 90.8049 216.7 87.7294C216.7 84.8326 216.154 82.433 215.068 80.5307C214.073 78.5367 212.533 77.0448 210.452 76.0502C208.463 75.0556 205.928 74.5583 202.848 74.5583H198.638V102.262H198.642Z" fill="white"/>
<path d="M118.81 169.889C110.39 169.889 103.785 168.533 98.9862 165.814C94.2788 163.009 90.9764 158.978 89.0741 153.73C87.1718 148.39 86.2207 141.872 86.2207 134.176V58.2683H110.255V137.84C110.255 140.105 110.438 142.364 110.801 144.629C111.163 146.893 111.93 148.747 113.108 150.196C114.378 151.644 116.276 152.368 118.81 152.368C121.345 152.368 123.339 151.644 124.512 150.196C125.69 148.747 126.415 146.893 126.685 144.629C127.047 142.364 127.231 140.105 127.231 137.84V58.2683H151.4V134.176C151.4 141.872 150.406 148.39 148.412 153.73C146.509 158.978 143.207 163.009 138.499 165.814C133.792 168.533 127.231 169.889 118.81 169.889Z" fill="white"/>
<path d="M0 168.257V58.2683H27.8389C37.4372 58.2683 44.9014 59.4898 50.2461 61.9328C55.586 64.2841 59.3423 68.0452 61.5149 73.2017C63.6876 78.2712 64.7739 84.8808 64.7739 93.0259V132.949C64.7739 141.186 63.6876 147.931 61.5149 153.184C59.3423 158.345 55.586 162.145 50.2461 164.593C44.9931 167.036 37.6158 168.257 28.1141 168.257H0ZM24.3095 151.422H28.1141C31.8269 151.422 34.4968 150.876 36.1239 149.79C37.751 148.704 38.7504 147.072 39.1125 144.904C39.5663 142.731 39.7884 140.013 39.7884 136.754V88.8206C39.7884 85.5616 39.5181 82.9351 38.9725 80.9459C38.5186 78.9519 37.4806 77.5083 35.8487 76.6006C34.2168 75.693 31.5951 75.2439 27.9741 75.2439H24.3095V151.422Z" fill="white"/>
<path d="M256.073 168.257L276.849 58.2683H304.552L325.057 168.257H302.65L298.985 145.039H282.826L279.021 168.257H256.073ZM284.994 130.506H296.673L290.836 87.5942L284.994 130.506Z" fill="white"/>
</g>
</g>
<defs>
<clipPath id="clip0_2119_2394">
<rect width="368.066" height="169.889" fill="white"/>
</clipPath>
<clipPath id="clip1_2119_2394">
<rect width="368.066" height="169.889" fill="white"/>
</clipPath>
</defs>
</svg>
