<svg width="567" height="568" viewBox="0 0 567 568" fill="none" xmlns="http://www.w3.org/2000/svg">
<path d="M255.698 355.429C255.698 349.007 260.904 343.8 267.327 343.8H506.327C512.75 343.8 517.956 349.007 517.956 355.429V364.339C517.956 370.762 512.75 375.968 506.327 375.968H267.327C260.904 375.968 255.698 370.762 255.698 364.339V355.429Z" fill="url(#paint0_linear_132_811)"/>
<path d="M255.698 355.429C255.698 349.007 260.904 343.8 267.327 343.8H506.327C512.75 343.8 517.956 349.007 517.956 355.429V364.339C517.956 370.762 512.75 375.968 506.327 375.968H267.327C260.904 375.968 255.698 370.762 255.698 364.339V355.429Z" stroke="url(#paint1_linear_132_811)" stroke-width="1.01122"/>
<path d="M268.094 364.384V355.559H269.96V362.846H273.743V364.384H268.094ZM277.961 364.514C277.28 364.514 276.694 364.376 276.203 364.1C275.714 363.821 275.338 363.428 275.074 362.919C274.81 362.408 274.677 361.803 274.677 361.105C274.677 360.424 274.81 359.827 275.074 359.312C275.338 358.798 275.71 358.397 276.19 358.11C276.673 357.823 277.238 357.679 277.888 357.679C278.324 357.679 278.731 357.75 279.107 357.89C279.486 358.028 279.817 358.237 280.098 358.515C280.383 358.794 280.604 359.144 280.762 359.567C280.92 359.986 280.999 360.477 280.999 361.04V361.545H275.41V360.407H279.271C279.271 360.143 279.214 359.908 279.099 359.705C278.984 359.501 278.824 359.341 278.62 359.226C278.419 359.108 278.185 359.05 277.918 359.05C277.639 359.05 277.392 359.114 277.177 359.243C276.964 359.37 276.797 359.541 276.677 359.756C276.556 359.969 276.494 360.206 276.492 360.467V361.549C276.492 361.876 276.552 362.159 276.673 362.398C276.796 362.636 276.97 362.82 277.194 362.949C277.418 363.079 277.684 363.143 277.991 363.143C278.195 363.143 278.382 363.115 278.551 363.057C278.721 363 278.866 362.913 278.987 362.799C279.107 362.684 279.199 362.543 279.262 362.376L280.96 362.488C280.874 362.896 280.697 363.252 280.43 363.557C280.166 363.859 279.824 364.094 279.405 364.264C278.988 364.43 278.507 364.514 277.961 364.514ZM285.717 357.765V359.144H281.731V357.765H285.717ZM282.636 356.18H284.472V362.35C284.472 362.52 284.498 362.652 284.55 362.747C284.601 362.839 284.673 362.903 284.765 362.941C284.86 362.978 284.969 362.997 285.093 362.997C285.179 362.997 285.265 362.99 285.351 362.975C285.437 362.958 285.503 362.945 285.549 362.936L285.838 364.302C285.746 364.331 285.617 364.364 285.45 364.402C285.284 364.442 285.081 364.466 284.843 364.475C284.4 364.492 284.012 364.433 283.679 364.298C283.349 364.163 283.092 363.953 282.908 363.669C282.724 363.385 282.634 363.025 282.636 362.592V356.18ZM289.722 364.384V357.765H291.471V358.933H291.549C291.687 358.545 291.917 358.239 292.238 358.015C292.56 357.791 292.945 357.679 293.393 357.679C293.847 357.679 294.233 357.793 294.552 358.02C294.871 358.244 295.084 358.548 295.19 358.933H295.259C295.394 358.554 295.638 358.251 295.992 358.024C296.348 357.794 296.769 357.679 297.254 357.679C297.872 357.679 298.373 357.876 298.758 358.27C299.146 358.66 299.34 359.215 299.34 359.933V364.384H297.508V360.295C297.508 359.927 297.411 359.651 297.215 359.468C297.02 359.284 296.776 359.192 296.483 359.192C296.15 359.192 295.89 359.298 295.703 359.511C295.516 359.72 295.423 359.998 295.423 360.342V364.384H293.643V360.256C293.643 359.931 293.55 359.673 293.363 359.48C293.179 359.288 292.936 359.192 292.635 359.192C292.431 359.192 292.247 359.243 292.083 359.347C291.922 359.447 291.794 359.59 291.7 359.773C291.605 359.954 291.557 360.167 291.557 360.411V364.384H289.722ZM303.806 364.514C303.125 364.514 302.539 364.376 302.048 364.1C301.56 363.821 301.183 363.428 300.919 362.919C300.655 362.408 300.523 361.803 300.523 361.105C300.523 360.424 300.655 359.827 300.919 359.312C301.183 358.798 301.555 358.397 302.035 358.11C302.518 357.823 303.084 357.679 303.733 357.679C304.17 357.679 304.576 357.75 304.953 357.89C305.332 358.028 305.662 358.237 305.944 358.515C306.228 358.794 306.449 359.144 306.607 359.567C306.765 359.986 306.844 360.477 306.844 361.04V361.545H301.255V360.407H305.116C305.116 360.143 305.059 359.908 304.944 359.705C304.829 359.501 304.67 359.341 304.466 359.226C304.264 359.108 304.03 359.05 303.763 359.05C303.485 359.05 303.237 359.114 303.022 359.243C302.809 359.37 302.643 359.541 302.522 359.756C302.401 359.969 302.34 360.206 302.337 360.467V361.549C302.337 361.876 302.397 362.159 302.518 362.398C302.641 362.636 302.815 362.82 303.039 362.949C303.263 363.079 303.529 363.143 303.836 363.143C304.04 363.143 304.227 363.115 304.397 363.057C304.566 363 304.711 362.913 304.832 362.799C304.953 362.684 305.044 362.543 305.108 362.376L306.805 362.488C306.719 362.896 306.543 363.252 306.275 363.557C306.011 363.859 305.669 364.094 305.25 364.264C304.833 364.43 304.352 364.514 303.806 364.514ZM315.224 366.866V363.324H315.168C315.082 363.508 314.96 363.691 314.802 363.871C314.647 364.05 314.445 364.198 314.195 364.315C313.948 364.433 313.646 364.492 313.29 364.492C312.787 364.492 312.332 364.363 311.924 364.104C311.519 363.843 311.197 363.459 310.958 362.954C310.723 362.445 310.605 361.822 310.605 361.083C310.605 360.325 310.727 359.694 310.971 359.192C311.216 358.686 311.54 358.308 311.945 358.058C312.353 357.806 312.8 357.679 313.285 357.679C313.656 357.679 313.965 357.742 314.212 357.869C314.462 357.992 314.663 358.147 314.815 358.334C314.97 358.518 315.088 358.699 315.168 358.877H315.246V357.765H317.056V366.866H315.224ZM313.871 363.031C314.167 363.031 314.417 362.951 314.621 362.79C314.828 362.626 314.986 362.398 315.095 362.105C315.207 361.812 315.263 361.468 315.263 361.075C315.263 360.681 315.209 360.339 315.1 360.049C314.99 359.759 314.832 359.535 314.626 359.377C314.419 359.219 314.167 359.14 313.871 359.14C313.57 359.14 313.316 359.222 313.109 359.386C312.902 359.549 312.745 359.776 312.639 360.066C312.533 360.357 312.48 360.693 312.48 361.075C312.48 361.46 312.533 361.8 312.639 362.096C312.748 362.389 312.905 362.619 313.109 362.786C313.316 362.949 313.57 363.031 313.871 363.031ZM322.774 361.566V357.765H324.61V364.384H322.847V363.182H322.778C322.629 363.57 322.381 363.882 322.033 364.117C321.688 364.353 321.267 364.47 320.77 364.47C320.328 364.47 319.939 364.37 319.603 364.169C319.266 363.968 319.004 363.682 318.814 363.311C318.627 362.941 318.533 362.497 318.53 361.98V357.765H320.365V361.652C320.368 362.043 320.473 362.352 320.68 362.579C320.887 362.806 321.164 362.919 321.512 362.919C321.733 362.919 321.94 362.869 322.132 362.768C322.325 362.665 322.48 362.513 322.597 362.312C322.718 362.11 322.777 361.862 322.774 361.566ZM326.078 364.384V357.765H327.914V364.384H326.078ZM327 356.912C326.727 356.912 326.493 356.822 326.298 356.641C326.106 356.457 326.009 356.237 326.009 355.981C326.009 355.729 326.106 355.512 326.298 355.331C326.493 355.147 326.727 355.055 327 355.055C327.273 355.055 327.506 355.147 327.698 355.331C327.894 355.512 327.991 355.729 327.991 355.981C327.991 356.237 327.894 356.457 327.698 356.641C327.506 356.822 327.273 356.912 327 356.912ZM332.375 364.514C331.697 364.514 331.114 364.37 330.625 364.083C330.14 363.792 329.767 363.39 329.505 362.876C329.247 362.362 329.117 361.77 329.117 361.101C329.117 360.423 329.248 359.828 329.509 359.317C329.774 358.802 330.149 358.402 330.634 358.114C331.12 357.824 331.697 357.679 332.366 357.679C332.944 357.679 333.449 357.784 333.883 357.994C334.317 358.203 334.66 358.498 334.913 358.877C335.166 359.256 335.305 359.702 335.331 360.213H333.599C333.55 359.883 333.421 359.617 333.211 359.416C333.004 359.212 332.733 359.11 332.397 359.11C332.112 359.11 331.864 359.187 331.651 359.343C331.441 359.495 331.278 359.717 331.16 360.01C331.042 360.303 330.983 360.658 330.983 361.075C330.983 361.497 331.041 361.856 331.155 362.152C331.273 362.448 331.438 362.674 331.651 362.829C331.864 362.984 332.112 363.061 332.397 363.061C332.606 363.061 332.794 363.018 332.961 362.932C333.131 362.846 333.27 362.721 333.379 362.557C333.491 362.391 333.564 362.191 333.599 361.958H335.331C335.302 362.464 335.164 362.909 334.917 363.294C334.673 363.676 334.336 363.975 333.905 364.19C333.474 364.406 332.964 364.514 332.375 364.514ZM338.17 362.48L338.174 360.278H338.441L340.561 357.765H342.669L339.82 361.092H339.385L338.17 362.48ZM336.506 364.384V355.559H338.342V364.384H336.506ZM340.643 364.384L338.695 361.501L339.919 360.204L342.793 364.384H340.643ZM345.405 355.559V364.384H343.569V355.559H345.405ZM348.009 366.866C347.776 366.866 347.558 366.848 347.354 366.81C347.153 366.776 346.986 366.731 346.854 366.677L347.267 365.306C347.483 365.373 347.677 365.408 347.849 365.414C348.024 365.42 348.175 365.38 348.302 365.294C348.431 365.207 348.536 365.061 348.616 364.854L348.724 364.574L346.35 357.765H348.28L349.65 362.626H349.719L351.103 357.765H353.046L350.473 365.1C350.35 365.456 350.182 365.766 349.969 366.03C349.76 366.298 349.494 366.503 349.172 366.647C348.85 366.793 348.463 366.866 348.009 366.866ZM356.794 357.765H358.63V364.712C358.63 365.223 358.529 365.637 358.328 365.953C358.127 366.269 357.838 366.5 357.462 366.647C357.088 366.793 356.642 366.866 356.122 366.866C356.059 366.866 355.998 366.865 355.941 366.862C355.88 366.862 355.817 366.861 355.751 366.858V365.423C355.8 365.426 355.843 365.427 355.88 365.427C355.915 365.43 355.952 365.431 355.992 365.431C356.288 365.431 356.495 365.368 356.613 365.242C356.734 365.118 356.794 364.932 356.794 364.682V357.765ZM357.708 356.912C357.437 356.912 357.205 356.822 357.009 356.641C356.814 356.457 356.716 356.237 356.716 355.981C356.716 355.729 356.814 355.512 357.009 355.331C357.205 355.147 357.437 355.055 357.708 355.055C357.983 355.055 358.217 355.147 358.41 355.331C358.605 355.512 358.703 355.729 358.703 355.981C358.703 356.237 358.605 356.457 358.41 356.641C358.217 356.822 357.983 356.912 357.708 356.912ZM364.345 361.566V357.765H366.18V364.384H364.418V363.182H364.349C364.2 363.57 363.951 363.882 363.604 364.117C363.259 364.353 362.838 364.47 362.341 364.47C361.899 364.47 361.509 364.37 361.173 364.169C360.837 363.968 360.574 363.682 360.385 363.311C360.198 362.941 360.103 362.497 360.1 361.98V357.765H361.936V361.652C361.939 362.043 362.044 362.352 362.25 362.579C362.457 362.806 362.735 362.919 363.082 362.919C363.303 362.919 363.51 362.869 363.703 362.768C363.895 362.665 364.05 362.513 364.168 362.312C364.289 362.11 364.348 361.862 364.345 361.566ZM367.649 364.384V357.765H369.398V358.933H369.476C369.614 358.545 369.844 358.239 370.165 358.015C370.487 357.791 370.872 357.679 371.32 357.679C371.774 357.679 372.16 357.793 372.479 358.02C372.798 358.244 373.011 358.548 373.117 358.933H373.186C373.321 358.554 373.565 358.251 373.919 358.024C374.275 357.794 374.696 357.679 375.181 357.679C375.799 357.679 376.3 357.876 376.685 358.27C377.073 358.66 377.267 359.215 377.267 359.933V364.384H375.435V360.295C375.435 359.927 375.338 359.651 375.142 359.468C374.947 359.284 374.703 359.192 374.41 359.192C374.077 359.192 373.817 359.298 373.63 359.511C373.443 359.72 373.35 359.998 373.35 360.342V364.384H371.57V360.256C371.57 359.931 371.477 359.673 371.29 359.48C371.106 359.288 370.863 359.192 370.562 359.192C370.358 359.192 370.174 359.243 370.01 359.347C369.849 359.447 369.721 359.59 369.627 359.773C369.532 359.954 369.484 360.167 369.484 360.411V364.384H367.649ZM378.717 366.866V357.765H380.527V358.877H380.609C380.689 358.699 380.805 358.518 380.958 358.334C381.113 358.147 381.314 357.992 381.561 357.869C381.811 357.742 382.121 357.679 382.492 357.679C382.974 357.679 383.42 357.806 383.828 358.058C384.235 358.308 384.562 358.686 384.806 359.192C385.05 359.694 385.172 360.325 385.172 361.083C385.172 361.822 385.053 362.445 384.814 362.954C384.579 363.459 384.257 363.843 383.849 364.104C383.444 364.363 382.99 364.492 382.487 364.492C382.131 364.492 381.828 364.433 381.578 364.315C381.331 364.198 381.129 364.05 380.971 363.871C380.813 363.691 380.692 363.508 380.609 363.324H380.553V366.866H378.717ZM380.514 361.075C380.514 361.468 380.568 361.812 380.678 362.105C380.787 362.398 380.945 362.626 381.152 362.79C381.358 362.951 381.61 363.031 381.906 363.031C382.204 363.031 382.457 362.949 382.664 362.786C382.871 362.619 383.027 362.389 383.134 362.096C383.243 361.8 383.297 361.46 383.297 361.075C383.297 360.693 383.244 360.357 383.138 360.066C383.032 359.776 382.875 359.549 382.668 359.386C382.462 359.222 382.207 359.14 381.906 359.14C381.607 359.14 381.354 359.219 381.147 359.377C380.943 359.535 380.787 359.759 380.678 360.049C380.568 360.339 380.514 360.681 380.514 361.075ZM389.204 364.384V357.765H391.04V364.384H389.204ZM390.126 356.912C389.854 356.912 389.619 356.822 389.424 356.641C389.232 356.457 389.135 356.237 389.135 355.981C389.135 355.729 389.232 355.512 389.424 355.331C389.619 355.147 389.854 355.055 390.126 355.055C390.399 355.055 390.632 355.147 390.825 355.331C391.02 355.512 391.118 355.729 391.118 355.981C391.118 356.237 391.02 356.457 390.825 356.641C390.632 356.822 390.399 356.912 390.126 356.912ZM394.346 360.558V364.384H392.51V357.765H394.26V358.933H394.338C394.484 358.548 394.73 358.244 395.074 358.02C395.419 357.793 395.837 357.679 396.328 357.679C396.788 357.679 397.189 357.78 397.531 357.981C397.873 358.182 398.138 358.469 398.328 358.843C398.517 359.213 398.612 359.656 398.612 360.17V364.384H396.777V360.497C396.779 360.092 396.676 359.776 396.466 359.549C396.257 359.32 395.968 359.205 395.6 359.205C395.353 359.205 395.135 359.258 394.945 359.364C394.758 359.47 394.612 359.626 394.506 359.829C394.402 360.031 394.349 360.273 394.346 360.558ZM403.58 357.765V359.144H399.594V357.765H403.58ZM400.499 356.18H402.334V362.35C402.334 362.52 402.36 362.652 402.412 362.747C402.464 362.839 402.535 362.903 402.627 362.941C402.722 362.978 402.831 362.997 402.955 362.997C403.041 362.997 403.127 362.99 403.213 362.975C403.3 362.958 403.366 362.945 403.412 362.936L403.7 364.302C403.608 364.331 403.479 364.364 403.312 364.402C403.146 364.442 402.943 364.466 402.705 364.475C402.262 364.492 401.875 364.433 401.541 364.298C401.211 364.163 400.954 363.953 400.77 363.669C400.586 363.385 400.496 363.025 400.499 362.592V356.18ZM407.695 364.514C407.026 364.514 406.447 364.371 405.958 364.087C405.473 363.8 405.098 363.4 404.834 362.889C404.569 362.375 404.437 361.779 404.437 361.101C404.437 360.417 404.569 359.819 404.834 359.308C405.098 358.794 405.473 358.395 405.958 358.11C406.447 357.823 407.026 357.679 407.695 357.679C408.364 357.679 408.942 357.823 409.427 358.11C409.916 358.395 410.292 358.794 410.556 359.308C410.821 359.819 410.953 360.417 410.953 361.101C410.953 361.779 410.821 362.375 410.556 362.889C410.292 363.4 409.916 363.8 409.427 364.087C408.942 364.371 408.364 364.514 407.695 364.514ZM407.704 363.092C408.008 363.092 408.262 363.005 408.466 362.833C408.67 362.658 408.824 362.419 408.927 362.118C409.034 361.816 409.087 361.473 409.087 361.088C409.087 360.703 409.034 360.36 408.927 360.058C408.824 359.756 408.67 359.518 408.466 359.343C408.262 359.167 408.008 359.08 407.704 359.08C407.396 359.08 407.138 359.167 406.928 359.343C406.721 359.518 406.564 359.756 406.458 360.058C406.355 360.36 406.303 360.703 406.303 361.088C406.303 361.473 406.355 361.816 406.458 362.118C406.564 362.419 406.721 362.658 406.928 362.833C407.138 363.005 407.396 363.092 407.704 363.092ZM419.777 358.097C419.742 357.75 419.594 357.48 419.333 357.287C419.071 357.095 418.717 356.998 418.269 356.998C417.964 356.998 417.707 357.041 417.497 357.128C417.287 357.211 417.127 357.327 417.015 357.477C416.905 357.626 416.851 357.796 416.851 357.985C416.845 358.143 416.878 358.281 416.95 358.399C417.025 358.517 417.127 358.619 417.256 358.705C417.385 358.788 417.535 358.861 417.704 358.925C417.874 358.985 418.055 359.037 418.247 359.08L419.04 359.269C419.425 359.355 419.778 359.47 420.1 359.614C420.422 359.758 420.7 359.934 420.936 360.144C421.171 360.354 421.354 360.601 421.483 360.885C421.615 361.17 421.683 361.496 421.686 361.863C421.683 362.403 421.545 362.872 421.272 363.268C421.002 363.662 420.611 363.968 420.1 364.186C419.591 364.402 418.978 364.509 418.26 364.509C417.547 364.509 416.927 364.4 416.398 364.182C415.873 363.963 415.462 363.64 415.166 363.212C414.873 362.781 414.719 362.248 414.705 361.613H416.51C416.531 361.909 416.615 362.156 416.765 362.355C416.917 362.55 417.119 362.698 417.372 362.799C417.628 362.896 417.917 362.945 418.238 362.945C418.554 362.945 418.829 362.899 419.061 362.807C419.297 362.715 419.479 362.587 419.609 362.424C419.738 362.26 419.803 362.072 419.803 361.859C419.803 361.661 419.744 361.494 419.626 361.359C419.511 361.224 419.342 361.109 419.117 361.015C418.896 360.92 418.625 360.834 418.303 360.756L417.342 360.515C416.598 360.334 416.011 360.051 415.58 359.666C415.149 359.281 414.935 358.762 414.938 358.11C414.935 357.576 415.077 357.109 415.364 356.71C415.654 356.31 416.052 355.999 416.558 355.775C417.063 355.55 417.638 355.438 418.281 355.438C418.936 355.438 419.508 355.55 419.997 355.775C420.488 355.999 420.87 356.31 421.143 356.71C421.416 357.109 421.556 357.571 421.565 358.097H419.777ZM424.794 364.509C424.371 364.509 423.995 364.436 423.665 364.289C423.334 364.14 423.073 363.92 422.88 363.63C422.691 363.337 422.596 362.972 422.596 362.536C422.596 362.168 422.664 361.859 422.799 361.609C422.934 361.359 423.117 361.158 423.35 361.006C423.583 360.854 423.847 360.739 424.143 360.661C424.442 360.584 424.755 360.529 425.082 360.497C425.467 360.457 425.778 360.42 426.013 360.385C426.249 360.348 426.42 360.293 426.526 360.222C426.632 360.15 426.685 360.044 426.685 359.903V359.877C426.685 359.604 426.599 359.393 426.427 359.243C426.257 359.094 426.016 359.019 425.703 359.019C425.373 359.019 425.11 359.093 424.914 359.239C424.719 359.383 424.59 359.564 424.527 359.782L422.829 359.644C422.915 359.242 423.084 358.894 423.337 358.601C423.59 358.305 423.916 358.079 424.315 357.921C424.718 357.76 425.183 357.679 425.712 357.679C426.079 357.679 426.431 357.722 426.767 357.808C427.106 357.895 427.406 358.028 427.668 358.209C427.932 358.39 428.14 358.623 428.293 358.907C428.445 359.189 428.521 359.526 428.521 359.92V364.384H426.78V363.466H426.729C426.622 363.673 426.48 363.856 426.302 364.014C426.124 364.169 425.91 364.291 425.66 364.38C425.41 364.466 425.121 364.509 424.794 364.509ZM425.319 363.242C425.589 363.242 425.828 363.189 426.035 363.083C426.242 362.974 426.404 362.827 426.522 362.643C426.639 362.46 426.698 362.251 426.698 362.019V361.316C426.641 361.353 426.562 361.388 426.461 361.42C426.364 361.448 426.253 361.476 426.13 361.501C426.006 361.524 425.882 361.546 425.759 361.566C425.635 361.583 425.523 361.599 425.423 361.613C425.207 361.645 425.019 361.695 424.858 361.764C424.697 361.833 424.572 361.927 424.483 362.044C424.394 362.159 424.35 362.303 424.35 362.475C424.35 362.725 424.44 362.916 424.621 363.048C424.805 363.178 425.038 363.242 425.319 363.242ZM431.781 360.558V364.384H429.945V357.765H431.695V358.933H431.772C431.919 358.548 432.165 358.244 432.509 358.02C432.854 357.793 433.272 357.679 433.763 357.679C434.223 357.679 434.624 357.78 434.965 357.981C435.307 358.182 435.573 358.469 435.763 358.843C435.952 359.213 436.047 359.656 436.047 360.17V364.384H434.211V360.497C434.214 360.092 434.111 359.776 433.901 359.549C433.691 359.32 433.403 359.205 433.035 359.205C432.788 359.205 432.57 359.258 432.38 359.364C432.193 359.47 432.047 359.626 431.94 359.829C431.837 360.031 431.784 360.273 431.781 360.558ZM437.494 364.384V357.765H439.33V364.384H437.494ZM438.416 356.912C438.143 356.912 437.909 356.822 437.714 356.641C437.521 356.457 437.425 356.237 437.425 355.981C437.425 355.729 437.521 355.512 437.714 355.331C437.909 355.147 438.143 355.055 438.416 355.055C438.689 355.055 438.922 355.147 439.114 355.331C439.309 355.512 439.407 355.729 439.407 355.981C439.407 356.237 439.309 356.457 439.114 356.641C438.922 356.822 438.689 356.912 438.416 356.912ZM444.321 357.765V359.144H440.335V357.765H444.321ZM441.24 356.18H443.075V362.35C443.075 362.52 443.101 362.652 443.153 362.747C443.205 362.839 443.276 362.903 443.368 362.941C443.463 362.978 443.572 362.997 443.696 362.997C443.782 362.997 443.868 362.99 443.954 362.975C444.041 362.958 444.107 362.945 444.153 362.936L444.441 364.302C444.349 364.331 444.22 364.364 444.054 364.402C443.887 364.442 443.684 364.466 443.446 364.475C443.004 364.492 442.616 364.433 442.282 364.298C441.952 364.163 441.695 363.953 441.511 363.669C441.327 363.385 441.237 363.025 441.24 362.592V356.18ZM446.65 366.866C446.417 366.866 446.199 366.848 445.995 366.81C445.794 366.776 445.627 366.731 445.495 366.677L445.909 365.306C446.124 365.373 446.318 365.408 446.49 365.414C446.666 365.42 446.816 365.38 446.943 365.294C447.072 365.207 447.177 365.061 447.257 364.854L447.365 364.574L444.991 357.765H446.921L448.292 362.626H448.361L449.744 357.765H451.687L449.115 365.1C448.991 365.456 448.823 365.766 448.61 366.03C448.401 366.298 448.135 366.503 447.813 366.647C447.492 366.793 447.104 366.866 446.65 366.866ZM457.323 364.509C456.9 364.509 456.524 364.436 456.194 364.289C455.863 364.14 455.602 363.92 455.409 363.63C455.22 363.337 455.125 362.972 455.125 362.536C455.125 362.168 455.192 361.859 455.327 361.609C455.462 361.359 455.646 361.158 455.879 361.006C456.112 360.854 456.376 360.739 456.672 360.661C456.971 360.584 457.284 360.529 457.611 360.497C457.996 360.457 458.306 360.42 458.542 360.385C458.778 360.348 458.949 360.293 459.055 360.222C459.161 360.15 459.214 360.044 459.214 359.903V359.877C459.214 359.604 459.128 359.393 458.956 359.243C458.786 359.094 458.545 359.019 458.232 359.019C457.901 359.019 457.639 359.093 457.443 359.239C457.248 359.383 457.119 359.564 457.055 359.782L455.358 359.644C455.444 359.242 455.613 358.894 455.866 358.601C456.119 358.305 456.445 358.079 456.844 357.921C457.246 357.76 457.712 357.679 458.24 357.679C458.608 357.679 458.96 357.722 459.296 357.808C459.635 357.895 459.935 358.028 460.197 358.209C460.461 358.39 460.669 358.623 460.822 358.907C460.974 359.189 461.05 359.526 461.05 359.92V364.384H459.309V363.466H459.257C459.151 363.673 459.009 363.856 458.831 364.014C458.653 364.169 458.439 364.291 458.189 364.38C457.939 364.466 457.65 364.509 457.323 364.509ZM457.848 363.242C458.118 363.242 458.357 363.189 458.564 363.083C458.77 362.974 458.933 362.827 459.05 362.643C459.168 362.46 459.227 362.251 459.227 362.019V361.316C459.17 361.353 459.091 361.388 458.99 361.42C458.892 361.448 458.782 361.476 458.658 361.501C458.535 361.524 458.411 361.546 458.288 361.566C458.164 361.583 458.052 361.599 457.952 361.613C457.736 361.645 457.548 361.695 457.387 361.764C457.226 361.833 457.101 361.927 457.012 362.044C456.923 362.159 456.879 362.303 456.879 362.475C456.879 362.725 456.969 362.916 457.15 363.048C457.334 363.178 457.567 363.242 457.848 363.242ZM464.31 360.558V364.384H462.474V357.765H464.224V358.933H464.301C464.448 358.548 464.693 358.244 465.038 358.02C465.383 357.793 465.801 357.679 466.292 357.679C466.752 357.679 467.152 357.78 467.494 357.981C467.836 358.182 468.102 358.469 468.292 358.843C468.481 359.213 468.576 359.656 468.576 360.17V364.384H466.74V360.497C466.743 360.092 466.64 359.776 466.43 359.549C466.22 359.32 465.932 359.205 465.564 359.205C465.317 359.205 465.098 359.258 464.909 359.364C464.722 359.47 464.576 359.626 464.469 359.829C464.366 360.031 464.313 360.273 464.31 360.558ZM472.462 364.492C471.959 364.492 471.504 364.363 471.096 364.104C470.691 363.843 470.369 363.459 470.13 362.954C469.895 362.445 469.777 361.822 469.777 361.083C469.777 360.325 469.899 359.694 470.143 359.192C470.388 358.686 470.712 358.308 471.117 358.058C471.525 357.806 471.972 357.679 472.457 357.679C472.828 357.679 473.137 357.742 473.384 357.869C473.634 357.992 473.835 358.147 473.987 358.334C474.142 358.518 474.26 358.699 474.341 358.877H474.397V355.559H476.228V364.384H474.418V363.324H474.341C474.254 363.508 474.132 363.691 473.974 363.871C473.819 364.05 473.617 364.198 473.367 364.315C473.12 364.433 472.818 364.492 472.462 364.492ZM473.043 363.031C473.339 363.031 473.589 362.951 473.793 362.79C474 362.626 474.158 362.398 474.267 362.105C474.379 361.812 474.435 361.468 474.435 361.075C474.435 360.681 474.381 360.339 474.272 360.049C474.162 359.759 474.004 359.535 473.798 359.377C473.591 359.219 473.339 359.14 473.043 359.14C472.742 359.14 472.488 359.222 472.281 359.386C472.074 359.549 471.917 359.776 471.811 360.066C471.705 360.357 471.652 360.693 471.652 361.075C471.652 361.46 471.705 361.8 471.811 362.096C471.92 362.389 472.077 362.619 472.281 362.786C472.488 362.949 472.742 363.031 473.043 363.031ZM484.105 357.765V359.144H480.02V357.765H484.105ZM480.955 364.384V357.287C480.955 356.807 481.048 356.409 481.235 356.093C481.425 355.777 481.683 355.54 482.011 355.382C482.338 355.224 482.71 355.145 483.127 355.145C483.408 355.145 483.666 355.167 483.898 355.21C484.134 355.253 484.309 355.292 484.424 355.326L484.096 356.705C484.025 356.682 483.936 356.661 483.829 356.641C483.726 356.621 483.62 356.611 483.51 356.611C483.24 356.611 483.052 356.674 482.946 356.8C482.84 356.924 482.786 357.097 482.786 357.322V364.384H480.955ZM485.227 364.384V357.765H487.062V364.384H485.227ZM486.149 356.912C485.876 356.912 485.642 356.822 485.446 356.641C485.254 356.457 485.158 356.237 485.158 355.981C485.158 355.729 485.254 355.512 485.446 355.331C485.642 355.147 485.876 355.055 486.149 355.055C486.422 355.055 486.654 355.147 486.847 355.331C487.042 355.512 487.14 355.729 487.14 355.981C487.14 356.237 487.042 356.457 486.847 356.641C486.654 356.822 486.422 356.912 486.149 356.912ZM490.067 357.765L491.282 360.079L492.527 357.765H494.41L492.493 361.075L494.462 364.384H492.588L491.282 362.096L489.998 364.384H488.102L490.067 361.075L488.171 357.765H490.067ZM498.309 364.384V357.765H500.145V364.384H498.309ZM499.231 356.912C498.958 356.912 498.724 356.822 498.529 356.641C498.336 356.457 498.24 356.237 498.24 355.981C498.24 355.729 498.336 355.512 498.529 355.331C498.724 355.147 498.958 355.055 499.231 355.055C499.504 355.055 499.737 355.147 499.929 355.331C500.125 355.512 500.222 355.729 500.222 355.981C500.222 356.237 500.125 356.457 499.929 356.641C499.737 356.822 499.504 356.912 499.231 356.912ZM505.136 357.765V359.144H501.15V357.765H505.136ZM502.055 356.18H503.891V362.35C503.891 362.52 503.916 362.652 503.968 362.747C504.02 362.839 504.092 362.903 504.184 362.941C504.278 362.978 504.388 362.997 504.511 362.997C504.597 362.997 504.683 362.99 504.77 362.975C504.856 362.958 504.922 362.945 504.968 362.936L505.257 364.302C505.165 364.331 505.035 364.364 504.869 364.402C504.702 364.442 504.5 364.466 504.261 364.475C503.819 364.492 503.431 364.433 503.098 364.298C502.767 364.163 502.51 363.953 502.326 363.669C502.143 363.385 502.052 363.025 502.055 362.592V356.18Z" fill="white"/>
<path d="M458.698 395.878C458.698 389.455 463.904 384.249 470.327 384.249H506.327C512.75 384.249 517.956 389.455 517.956 395.878V404.788C517.956 411.211 512.75 416.417 506.327 416.417H470.327C463.904 416.417 458.698 411.211 458.698 404.788V395.878Z" fill="url(#paint2_linear_132_811)"/>
<path d="M458.698 395.878C458.698 389.455 463.904 384.249 470.327 384.249H506.327C512.75 384.249 517.956 389.455 517.956 395.878V404.788C517.956 411.211 512.75 416.417 506.327 416.417H470.327C463.904 416.417 458.698 411.211 458.698 404.788V395.878Z" stroke="url(#paint3_linear_132_811)" stroke-width="1.01122"/>
<path d="M474.223 404.833H471.094V396.008H474.248C475.136 396.008 475.9 396.185 476.541 396.538C477.181 396.888 477.674 397.393 478.019 398.05C478.366 398.708 478.54 399.495 478.54 400.412C478.54 401.331 478.366 402.121 478.019 402.782C477.674 403.443 477.179 403.95 476.532 404.303C475.889 404.656 475.119 404.833 474.223 404.833ZM472.96 403.234H474.145C474.697 403.234 475.16 403.137 475.537 402.941C475.916 402.743 476.2 402.437 476.39 402.023C476.583 401.607 476.679 401.07 476.679 400.412C476.679 399.76 476.583 399.227 476.39 398.813C476.2 398.399 475.917 398.095 475.541 397.9C475.165 397.704 474.701 397.607 474.149 397.607H472.96V403.234ZM482.879 404.962C482.209 404.962 481.63 404.82 481.142 404.536C480.656 404.248 480.282 403.849 480.017 403.338C479.753 402.823 479.621 402.227 479.621 401.549C479.621 400.866 479.753 400.268 480.017 399.757C480.282 399.243 480.656 398.843 481.142 398.559C481.63 398.272 482.209 398.128 482.879 398.128C483.548 398.128 484.125 398.272 484.611 398.559C485.099 398.843 485.476 399.243 485.74 399.757C486.004 400.268 486.136 400.866 486.136 401.549C486.136 402.227 486.004 402.823 485.74 403.338C485.476 403.849 485.099 404.248 484.611 404.536C484.125 404.82 483.548 404.962 482.879 404.962ZM482.887 403.54C483.192 403.54 483.446 403.454 483.65 403.282C483.854 403.106 484.008 402.868 484.111 402.566C484.217 402.265 484.27 401.921 484.27 401.536C484.27 401.152 484.217 400.808 484.111 400.507C484.008 400.205 483.854 399.967 483.65 399.791C483.446 399.616 483.192 399.528 482.887 399.528C482.58 399.528 482.321 399.616 482.112 399.791C481.905 399.967 481.748 400.205 481.642 400.507C481.538 400.808 481.487 401.152 481.487 401.536C481.487 401.921 481.538 402.265 481.642 402.566C481.748 402.868 481.905 403.106 482.112 403.282C482.321 403.454 482.58 403.54 482.887 403.54ZM489.166 401.006V404.833H487.33V398.214H489.079V399.382H489.157C489.304 398.997 489.549 398.692 489.894 398.468C490.239 398.241 490.657 398.128 491.148 398.128C491.607 398.128 492.008 398.228 492.35 398.43C492.692 398.631 492.958 398.918 493.147 399.291C493.337 399.662 493.432 400.104 493.432 400.619V404.833H491.596V400.946C491.599 400.541 491.495 400.225 491.286 399.998C491.076 399.768 490.787 399.653 490.42 399.653C490.173 399.653 489.954 399.707 489.765 399.813C489.578 399.919 489.431 400.074 489.325 400.278C489.222 400.479 489.169 400.722 489.166 401.006ZM497.895 404.962C497.214 404.962 496.628 404.824 496.137 404.549C495.648 404.27 495.272 403.876 495.008 403.368C494.743 402.857 494.611 402.252 494.611 401.554C494.611 400.873 494.743 400.275 495.008 399.761C495.272 399.247 495.644 398.846 496.124 398.559C496.606 398.272 497.172 398.128 497.822 398.128C498.258 398.128 498.665 398.198 499.041 398.339C499.42 398.477 499.751 398.685 500.032 398.964C500.317 399.243 500.538 399.593 500.696 400.015C500.854 400.435 500.933 400.926 500.933 401.489V401.993H495.344V400.856H499.205C499.205 400.591 499.147 400.357 499.033 400.153C498.918 399.949 498.758 399.79 498.554 399.675C498.353 399.557 498.119 399.498 497.852 399.498C497.573 399.498 497.326 399.563 497.111 399.692C496.898 399.819 496.731 399.99 496.611 400.205C496.49 400.418 496.428 400.655 496.425 400.916V401.998C496.425 402.325 496.486 402.608 496.606 402.846C496.73 403.085 496.904 403.269 497.128 403.398C497.352 403.527 497.618 403.592 497.925 403.592C498.129 403.592 498.316 403.563 498.485 403.506C498.655 403.448 498.8 403.362 498.921 403.247C499.041 403.132 499.133 402.992 499.196 402.825L500.894 402.937C500.808 403.345 500.631 403.701 500.364 404.006C500.1 404.307 499.758 404.543 499.338 404.712C498.922 404.879 498.441 404.962 497.895 404.962ZM504.324 396.008L504.156 402.187H502.579L502.407 396.008H504.324ZM503.368 404.945C503.083 404.945 502.839 404.844 502.635 404.643C502.431 404.439 502.33 404.195 502.333 403.911C502.33 403.629 502.431 403.388 502.635 403.187C502.839 402.986 503.083 402.885 503.368 402.885C503.64 402.885 503.88 402.986 504.087 403.187C504.294 403.388 504.399 403.629 504.402 403.911C504.399 404.1 504.349 404.274 504.251 404.432C504.156 404.587 504.031 404.712 503.876 404.807C503.721 404.899 503.551 404.945 503.368 404.945Z" fill="white"/>
<g filter="url(#filter0_dd_132_811)">
<rect x="318.262" y="435.315" width="52.966" height="23.8763" rx="6.67404" fill="#FAFAFA"/>
<rect x="318.262" y="435.315" width="52.966" height="23.8763" rx="6.67404" stroke="#D4D4D8" stroke-width="1.21346"/>
<path d="M326.513 451.753V442.928H332.459V444.467H328.378V446.569H332.153V448.108H328.378V450.215H332.476V451.753H326.513ZM333.908 451.753V445.135H335.688V446.289H335.757C335.877 445.879 336.08 445.568 336.364 445.359C336.649 445.146 336.976 445.04 337.347 445.04C337.439 445.04 337.538 445.045 337.644 445.057C337.75 445.068 337.844 445.084 337.924 445.104V446.733C337.838 446.707 337.719 446.684 337.567 446.664C337.414 446.644 337.275 446.634 337.149 446.634C336.879 446.634 336.637 446.693 336.425 446.811C336.215 446.926 336.048 447.087 335.925 447.293C335.804 447.5 335.744 447.739 335.744 448.009V451.753H333.908ZM338.873 451.753V445.135H340.709V451.753H338.873ZM339.796 444.281C339.523 444.281 339.288 444.191 339.093 444.01C338.901 443.826 338.804 443.606 338.804 443.351C338.804 443.098 338.901 442.881 339.093 442.7C339.288 442.516 339.523 442.424 339.796 442.424C340.068 442.424 340.301 442.516 340.494 442.7C340.689 442.881 340.787 443.098 340.787 443.351C340.787 443.606 340.689 443.826 340.494 444.01C340.301 444.191 340.068 444.281 339.796 444.281ZM343.843 449.849L343.847 447.647H344.114L346.234 445.135H348.342L345.493 448.461H345.058L343.843 449.849ZM342.18 451.753V442.928H344.015V451.753H342.18ZM346.316 451.753L344.369 448.871L345.592 447.574L348.467 451.753H346.316ZM355.214 451.753H352.085V442.928H355.24C356.127 442.928 356.891 443.105 357.532 443.458C358.173 443.809 358.665 444.313 359.01 444.971C359.358 445.629 359.532 446.416 359.532 447.332C359.532 448.252 359.358 449.042 359.01 449.702C358.665 450.363 358.17 450.87 357.523 451.223C356.88 451.577 356.11 451.753 355.214 451.753ZM353.951 450.155H355.136C355.688 450.155 356.152 450.057 356.528 449.862C356.907 449.663 357.192 449.358 357.381 448.944C357.574 448.527 357.67 447.99 357.67 447.332C357.67 446.68 357.574 446.147 357.381 445.734C357.192 445.32 356.909 445.015 356.532 444.82C356.156 444.625 355.692 444.527 355.14 444.527H353.951V450.155ZM361.395 451.865C361.111 451.865 360.867 451.765 360.663 451.564C360.462 451.36 360.361 451.116 360.361 450.831C360.361 450.55 360.462 450.308 360.663 450.107C360.867 449.906 361.111 449.806 361.395 449.806C361.671 449.806 361.912 449.906 362.119 450.107C362.326 450.308 362.429 450.55 362.429 450.831C362.429 451.021 362.381 451.195 362.283 451.353C362.188 451.508 362.063 451.633 361.908 451.728C361.753 451.819 361.582 451.865 361.395 451.865Z" fill="#18181B"/>
<path d="M312.829 414.992L326.03 428.193C326.794 428.958 326.253 430.265 325.172 430.265H318.947C318.303 430.265 317.686 430.52 317.231 430.976L312.829 435.377C312.065 436.142 310.758 435.6 310.758 434.519V415.85C310.758 414.769 312.065 414.228 312.829 414.992Z" fill="#FAFAFA" stroke="#D4D4D8" stroke-width="1.21346"/>
</g>
<path d="M49.7621 214.87C49.7621 208.447 54.9686 203.241 61.3911 203.241H334.391C340.814 203.241 346.02 208.447 346.02 214.87V223.78C346.02 230.203 340.814 235.409 334.391 235.409H61.3911C54.9685 235.409 49.7621 230.203 49.7621 223.78V214.87Z" fill="url(#paint4_linear_132_811)"/>
<path d="M49.7621 214.87C49.7621 208.447 54.9686 203.241 61.3911 203.241H334.391C340.814 203.241 346.02 208.447 346.02 214.87V223.78C346.02 230.203 340.814 235.409 334.391 235.409H61.3911C54.9685 235.409 49.7621 230.203 49.7621 223.78V214.87Z" stroke="url(#paint5_linear_132_811)" stroke-width="1.01122"/>
<path d="M64.1447 223.825L61.6195 215H63.6577L65.1185 221.132H65.1918L66.8034 215H68.5486L70.156 221.145H70.2335L71.6943 215H73.7326L71.2074 223.825H69.3889L67.7084 218.055H67.6394L65.9631 223.825H64.1447ZM77.0021 223.954C76.3213 223.954 75.7353 223.817 75.244 223.541C74.7556 223.262 74.3793 222.869 74.115 222.36C73.8507 221.849 73.7186 221.244 73.7186 220.546C73.7186 219.865 73.8507 219.268 74.115 218.753C74.3793 218.239 74.7513 217.838 75.2311 217.551C75.7137 217.264 76.2796 217.12 76.9289 217.12C77.3656 217.12 77.7721 217.191 78.1484 217.331C78.5276 217.469 78.858 217.677 79.1395 217.956C79.4239 218.235 79.6451 218.585 79.8031 219.008C79.9611 219.427 80.0401 219.918 80.0401 220.481V220.985H74.4511V219.848H78.3121C78.3121 219.584 78.2547 219.349 78.1398 219.145C78.0249 218.941 77.8654 218.782 77.6615 218.667C77.4604 218.549 77.2262 218.49 76.9591 218.49C76.6804 218.49 76.4333 218.555 76.2179 218.684C76.0053 218.811 75.8387 218.982 75.718 219.197C75.5974 219.41 75.5356 219.647 75.5327 219.908V220.99C75.5327 221.317 75.5931 221.6 75.7137 221.839C75.8372 222.077 76.011 222.261 76.2351 222.39C76.4592 222.52 76.7249 222.584 77.0323 222.584C77.2363 222.584 77.423 222.555 77.5925 222.498C77.762 222.441 77.9071 222.354 78.0277 222.239C78.1484 222.125 78.2403 221.984 78.3035 221.817L80.0013 221.929C79.9151 222.337 79.7385 222.693 79.4713 222.998C79.207 223.299 78.8651 223.535 78.4457 223.705C78.0292 223.871 77.548 223.954 77.0021 223.954ZM85.8823 219.999V223.825H84.0466V217.206H85.7961V218.374H85.8736C86.0202 217.989 86.2658 217.685 86.6105 217.461C86.9552 217.234 87.3732 217.12 87.8645 217.12C88.3241 217.12 88.7249 217.221 89.0667 217.422C89.4086 217.623 89.6743 217.91 89.8639 218.284C90.0535 218.654 90.1483 219.097 90.1483 219.611V223.825H88.3126V219.938C88.3155 219.533 88.2121 219.217 88.0024 218.99C87.7927 218.76 87.504 218.646 87.1362 218.646C86.8892 218.646 86.6708 218.699 86.4812 218.805C86.2945 218.911 86.148 219.066 86.0417 219.27C85.9383 219.471 85.8851 219.714 85.8823 219.999ZM94.6116 223.954C93.9307 223.954 93.3447 223.817 92.8534 223.541C92.365 223.262 91.9887 222.869 91.7244 222.36C91.4601 221.849 91.328 221.244 91.328 220.546C91.328 219.865 91.4601 219.268 91.7244 218.753C91.9887 218.239 92.3607 217.838 92.8405 217.551C93.3231 217.264 93.8891 217.12 94.5383 217.12C94.975 217.12 95.3815 217.191 95.7578 217.331C96.137 217.469 96.4674 217.677 96.7489 217.956C97.0333 218.235 97.2545 218.585 97.4125 219.008C97.5705 219.427 97.6495 219.918 97.6495 220.481V220.985H92.0605V219.848H95.9215C95.9215 219.584 95.8641 219.349 95.7492 219.145C95.6343 218.941 95.4748 218.782 95.2709 218.667C95.0698 218.549 94.8356 218.49 94.5685 218.49C94.2898 218.49 94.0428 218.555 93.8273 218.684C93.6147 218.811 93.4481 218.982 93.3274 219.197C93.2068 219.41 93.145 219.647 93.1421 219.908V220.99C93.1421 221.317 93.2025 221.6 93.3231 221.839C93.4466 222.077 93.6205 222.261 93.8445 222.39C94.0686 222.52 94.3343 222.584 94.6417 222.584C94.8457 222.584 95.0324 222.555 95.2019 222.498C95.3714 222.441 95.5165 222.354 95.6371 222.239C95.7578 222.125 95.8497 221.984 95.9129 221.817L97.6107 221.929C97.5246 222.337 97.3479 222.693 97.0807 222.998C96.8164 223.299 96.4746 223.535 96.0551 223.705C95.6386 223.871 95.1574 223.954 94.6116 223.954ZM101.864 223.954C101.183 223.954 100.597 223.817 100.106 223.541C99.6174 223.262 99.241 222.869 98.9767 222.36C98.7125 221.849 98.5803 221.244 98.5803 220.546C98.5803 219.865 98.7125 219.268 98.9767 218.753C99.241 218.239 99.6131 217.838 100.093 217.551C100.575 217.264 101.141 217.12 101.791 217.12C102.227 217.12 102.634 217.191 103.01 217.331C103.389 217.469 103.72 217.677 104.001 217.956C104.286 218.235 104.507 218.585 104.665 219.008C104.823 219.427 104.902 219.918 104.902 220.481V220.985H99.3129V219.848H103.174C103.174 219.584 103.116 219.349 103.002 219.145C102.887 218.941 102.727 218.782 102.523 218.667C102.322 218.549 102.088 218.49 101.821 218.49C101.542 218.49 101.295 218.555 101.08 218.684C100.867 218.811 100.7 218.982 100.58 219.197C100.459 219.41 100.397 219.647 100.394 219.908V220.99C100.394 221.317 100.455 221.6 100.575 221.839C100.699 222.077 100.873 222.261 101.097 222.39C101.321 222.52 101.587 222.584 101.894 222.584C102.098 222.584 102.285 222.555 102.454 222.498C102.624 222.441 102.769 222.354 102.889 222.239C103.01 222.125 103.102 221.984 103.165 221.817L104.863 221.929C104.777 222.337 104.6 222.693 104.333 222.998C104.069 223.299 103.727 223.535 103.307 223.705C102.891 223.871 102.41 223.954 101.864 223.954ZM108.539 223.933C108.036 223.933 107.581 223.804 107.173 223.545C106.768 223.284 106.446 222.9 106.208 222.395C105.972 221.886 105.854 221.263 105.854 220.524C105.854 219.766 105.976 219.135 106.22 218.633C106.465 218.127 106.789 217.749 107.194 217.499C107.602 217.247 108.049 217.12 108.534 217.12C108.905 217.12 109.214 217.183 109.461 217.31C109.711 217.433 109.912 217.588 110.064 217.775C110.219 217.959 110.337 218.14 110.418 218.318H110.474V215H112.305V223.825H110.495V222.765H110.418C110.331 222.949 110.209 223.131 110.051 223.312C109.896 223.491 109.694 223.638 109.444 223.756C109.197 223.874 108.895 223.933 108.539 223.933ZM109.121 222.472C109.416 222.472 109.666 222.392 109.87 222.231C110.077 222.067 110.235 221.839 110.344 221.546C110.456 221.253 110.512 220.909 110.512 220.516C110.512 220.122 110.458 219.78 110.349 219.49C110.239 219.2 110.081 218.976 109.875 218.818C109.668 218.66 109.416 218.581 109.121 218.581C108.819 218.581 108.565 218.663 108.358 218.827C108.151 218.99 107.994 219.217 107.888 219.507C107.782 219.798 107.729 220.134 107.729 220.516C107.729 220.901 107.782 221.241 107.888 221.537C107.997 221.83 108.154 222.06 108.358 222.226C108.565 222.39 108.819 222.472 109.121 222.472ZM120.143 217.206V218.585H116.157V217.206H120.143ZM117.062 215.621H118.898V221.791C118.898 221.961 118.924 222.093 118.976 222.188C119.027 222.28 119.099 222.344 119.191 222.382C119.286 222.419 119.395 222.438 119.519 222.438C119.605 222.438 119.691 222.43 119.777 222.416C119.863 222.399 119.929 222.386 119.975 222.377L120.264 223.743C120.172 223.772 120.043 223.805 119.876 223.842C119.71 223.883 119.507 223.907 119.269 223.916C118.826 223.933 118.438 223.874 118.105 223.739C117.775 223.604 117.518 223.394 117.334 223.11C117.15 222.825 117.059 222.466 117.062 222.033V215.621ZM124.259 223.954C123.589 223.954 123.01 223.812 122.522 223.528C122.037 223.241 121.662 222.841 121.397 222.33C121.133 221.816 121.001 221.22 121.001 220.542C121.001 219.858 121.133 219.26 121.397 218.749C121.662 218.235 122.037 217.835 122.522 217.551C123.01 217.264 123.589 217.12 124.259 217.12C124.928 217.12 125.505 217.264 125.991 217.551C126.479 217.835 126.856 218.235 127.12 218.749C127.384 219.26 127.516 219.858 127.516 220.542C127.516 221.22 127.384 221.816 127.12 222.33C126.856 222.841 126.479 223.241 125.991 223.528C125.505 223.812 124.928 223.954 124.259 223.954ZM124.267 222.532C124.572 222.532 124.826 222.446 125.03 222.274C125.234 222.099 125.388 221.86 125.491 221.559C125.597 221.257 125.65 220.914 125.65 220.529C125.65 220.144 125.597 219.8 125.491 219.499C125.388 219.197 125.234 218.959 125.03 218.783C124.826 218.608 124.572 218.521 124.267 218.521C123.96 218.521 123.701 218.608 123.492 218.783C123.285 218.959 123.128 219.197 123.022 219.499C122.918 219.8 122.867 220.144 122.867 220.529C122.867 220.914 122.918 221.257 123.022 221.559C123.128 221.86 123.285 222.099 123.492 222.274C123.701 222.446 123.96 222.532 124.267 222.532ZM135.763 221.007V217.206H137.599V223.825H135.836V222.623H135.767C135.618 223.011 135.369 223.322 135.022 223.558C134.677 223.794 134.256 223.911 133.759 223.911C133.317 223.911 132.928 223.811 132.591 223.61C132.255 223.409 131.993 223.123 131.803 222.752C131.616 222.382 131.521 221.938 131.519 221.421V217.206H133.354V221.093C133.357 221.484 133.462 221.793 133.669 222.02C133.876 222.247 134.153 222.36 134.5 222.36C134.722 222.36 134.928 222.31 135.121 222.209C135.313 222.106 135.469 221.954 135.586 221.752C135.707 221.551 135.766 221.303 135.763 221.007ZM139.067 226.307V217.206H140.877V218.318H140.959C141.039 218.14 141.156 217.959 141.308 217.775C141.463 217.588 141.664 217.433 141.911 217.31C142.161 217.183 142.471 217.12 142.842 217.12C143.325 217.12 143.77 217.247 144.178 217.499C144.586 217.749 144.912 218.127 145.156 218.633C145.4 219.135 145.522 219.766 145.522 220.524C145.522 221.263 145.403 221.886 145.165 222.395C144.929 222.9 144.607 223.284 144.199 223.545C143.794 223.804 143.34 223.933 142.838 223.933C142.481 223.933 142.178 223.874 141.928 223.756C141.681 223.638 141.479 223.491 141.321 223.312C141.163 223.131 141.042 222.949 140.959 222.765H140.903V226.307H139.067ZM140.864 220.516C140.864 220.909 140.919 221.253 141.028 221.546C141.137 221.839 141.295 222.067 141.502 222.231C141.709 222.392 141.96 222.472 142.256 222.472C142.555 222.472 142.807 222.39 143.014 222.226C143.221 222.06 143.378 221.83 143.484 221.537C143.593 221.241 143.648 220.901 143.648 220.516C143.648 220.134 143.595 219.798 143.488 219.507C143.382 219.217 143.225 218.99 143.019 218.827C142.812 218.663 142.558 218.581 142.256 218.581C141.957 218.581 141.704 218.66 141.497 218.818C141.293 218.976 141.137 219.2 141.028 219.49C140.919 219.78 140.864 220.122 140.864 220.516ZM149.185 223.933C148.682 223.933 148.227 223.804 147.819 223.545C147.414 223.284 147.092 222.9 146.854 222.395C146.618 221.886 146.5 221.263 146.5 220.524C146.5 219.766 146.622 219.135 146.867 218.633C147.111 218.127 147.435 217.749 147.841 217.499C148.248 217.247 148.695 217.12 149.181 217.12C149.551 217.12 149.86 217.183 150.107 217.31C150.357 217.433 150.558 217.588 150.71 217.775C150.866 217.959 150.983 218.14 151.064 218.318H151.12V215H152.951V223.825H151.141V222.765H151.064C150.978 222.949 150.856 223.131 150.698 223.312C150.542 223.491 150.34 223.638 150.09 223.756C149.843 223.874 149.541 223.933 149.185 223.933ZM149.767 222.472C150.063 222.472 150.313 222.392 150.517 222.231C150.723 222.067 150.881 221.839 150.991 221.546C151.103 221.253 151.159 220.909 151.159 220.516C151.159 220.122 151.104 219.78 150.995 219.49C150.886 219.2 150.728 218.976 150.521 218.818C150.314 218.66 150.063 218.581 149.767 218.581C149.465 218.581 149.211 218.663 149.004 218.827C148.797 218.99 148.641 219.217 148.534 219.507C148.428 219.798 148.375 220.134 148.375 220.516C148.375 220.901 148.428 221.241 148.534 221.537C148.643 221.83 148.8 222.06 149.004 222.226C149.211 222.39 149.465 222.472 149.767 222.472ZM156.348 223.95C155.926 223.95 155.549 223.877 155.219 223.73C154.889 223.581 154.627 223.361 154.435 223.071C154.245 222.778 154.15 222.413 154.15 221.977C154.15 221.609 154.218 221.3 154.353 221.05C154.488 220.8 154.672 220.599 154.904 220.447C155.137 220.295 155.401 220.18 155.697 220.102C155.996 220.025 156.309 219.97 156.637 219.938C157.022 219.898 157.332 219.861 157.567 219.826C157.803 219.789 157.974 219.734 158.08 219.663C158.187 219.591 158.24 219.484 158.24 219.344V219.318C158.24 219.045 158.153 218.834 157.981 218.684C157.812 218.535 157.57 218.46 157.257 218.46C156.927 218.46 156.664 218.534 156.469 218.68C156.273 218.824 156.144 219.005 156.081 219.223L154.383 219.085C154.469 218.683 154.639 218.335 154.891 218.042C155.144 217.746 155.47 217.519 155.87 217.361C156.272 217.201 156.737 217.12 157.266 217.12C157.633 217.12 157.985 217.163 158.322 217.249C158.661 217.336 158.961 217.469 159.222 217.65C159.486 217.831 159.695 218.064 159.847 218.348C159.999 218.63 160.075 218.967 160.075 219.361V223.825H158.334V222.907H158.283C158.176 223.114 158.034 223.297 157.856 223.455C157.678 223.61 157.464 223.732 157.214 223.821C156.964 223.907 156.675 223.95 156.348 223.95ZM156.874 222.683C157.144 222.683 157.382 222.63 157.589 222.524C157.796 222.415 157.958 222.268 158.076 222.084C158.194 221.9 158.253 221.692 158.253 221.459V220.757C158.195 220.794 158.116 220.829 158.016 220.86C157.918 220.889 157.807 220.917 157.684 220.942C157.56 220.965 157.437 220.987 157.313 221.007C157.19 221.024 157.078 221.04 156.977 221.054C156.762 221.086 156.573 221.136 156.413 221.205C156.252 221.274 156.127 221.368 156.038 221.485C155.949 221.6 155.904 221.744 155.904 221.916C155.904 222.166 155.995 222.357 156.176 222.489C156.359 222.619 156.592 222.683 156.874 222.683ZM165.02 217.206V218.585H161.034V217.206H165.02ZM161.939 215.621H163.775V221.791C163.775 221.961 163.801 222.093 163.852 222.188C163.904 222.28 163.976 222.344 164.068 222.382C164.163 222.419 164.272 222.438 164.395 222.438C164.481 222.438 164.568 222.43 164.654 222.416C164.74 222.399 164.806 222.386 164.852 222.377L165.141 223.743C165.049 223.772 164.92 223.805 164.753 223.842C164.586 223.883 164.384 223.907 164.145 223.916C163.703 223.933 163.315 223.874 162.982 223.739C162.652 223.604 162.394 223.394 162.211 223.11C162.027 222.825 161.936 222.466 161.939 222.033V215.621ZM169.161 223.954C168.48 223.954 167.894 223.817 167.403 223.541C166.915 223.262 166.538 222.869 166.274 222.36C166.01 221.849 165.878 221.244 165.878 220.546C165.878 219.865 166.01 219.268 166.274 218.753C166.538 218.239 166.91 217.838 167.39 217.551C167.873 217.264 168.439 217.12 169.088 217.12C169.525 217.12 169.931 217.191 170.307 217.331C170.687 217.469 171.017 217.677 171.299 217.956C171.583 218.235 171.804 218.585 171.962 219.008C172.12 219.427 172.199 219.918 172.199 220.481V220.985H166.61V219.848H170.471C170.471 219.584 170.414 219.349 170.299 219.145C170.184 218.941 170.024 218.782 169.821 218.667C169.619 218.549 169.385 218.49 169.118 218.49C168.839 218.49 168.592 218.555 168.377 218.684C168.164 218.811 167.998 218.982 167.877 219.197C167.756 219.41 167.695 219.647 167.692 219.908V220.99C167.692 221.317 167.752 221.6 167.873 221.839C167.996 222.077 168.17 222.261 168.394 222.39C168.618 222.52 168.884 222.584 169.191 222.584C169.395 222.584 169.582 222.555 169.752 222.498C169.921 222.441 170.066 222.354 170.187 222.239C170.307 222.125 170.399 221.984 170.463 221.817L172.16 221.929C172.074 222.337 171.898 222.693 171.63 222.998C171.366 223.299 171.024 223.535 170.605 223.705C170.188 223.871 169.707 223.954 169.161 223.954ZM179.726 217.206V218.585H175.74V217.206H179.726ZM176.645 215.621H178.481V221.791C178.481 221.961 178.507 222.093 178.558 222.188C178.61 222.28 178.682 222.344 178.774 222.382C178.869 222.419 178.978 222.438 179.101 222.438C179.188 222.438 179.274 222.43 179.36 222.416C179.446 222.399 179.512 222.386 179.558 222.377L179.847 223.743C179.755 223.772 179.626 223.805 179.459 223.842C179.292 223.883 179.09 223.907 178.851 223.916C178.409 223.933 178.021 223.874 177.688 223.739C177.358 223.604 177.101 223.394 176.917 223.11C176.733 222.825 176.642 222.466 176.645 222.033V215.621ZM182.9 219.999V223.825H181.064V215H182.848V218.374H182.926C183.075 217.983 183.316 217.677 183.65 217.456C183.983 217.232 184.401 217.12 184.904 217.12C185.363 217.12 185.764 217.221 186.106 217.422C186.451 217.62 186.718 217.906 186.907 218.279C187.1 218.65 187.195 219.094 187.192 219.611V223.825H185.356V219.938C185.359 219.53 185.256 219.213 185.046 218.986C184.839 218.759 184.549 218.646 184.175 218.646C183.926 218.646 183.704 218.699 183.512 218.805C183.322 218.911 183.173 219.066 183.064 219.27C182.957 219.471 182.903 219.714 182.9 219.999ZM188.637 223.825V217.206H190.472V223.825H188.637ZM189.559 216.353C189.286 216.353 189.052 216.263 188.856 216.082C188.664 215.898 188.568 215.678 188.568 215.422C188.568 215.17 188.664 214.953 188.856 214.772C189.052 214.588 189.286 214.496 189.559 214.496C189.832 214.496 190.064 214.588 190.257 214.772C190.452 214.953 190.55 215.17 190.55 215.422C190.55 215.678 190.452 215.898 190.257 216.082C190.064 216.263 189.832 216.353 189.559 216.353ZM197.45 219.094L195.769 219.197C195.741 219.054 195.679 218.924 195.584 218.809C195.489 218.692 195.364 218.598 195.209 218.529C195.057 218.457 194.874 218.421 194.662 218.421C194.377 218.421 194.138 218.482 193.942 218.602C193.747 218.72 193.649 218.878 193.649 219.076C193.649 219.234 193.712 219.368 193.839 219.477C193.965 219.586 194.182 219.674 194.489 219.74L195.687 219.981C196.331 220.114 196.811 220.326 197.127 220.619C197.443 220.912 197.601 221.297 197.601 221.774C197.601 222.208 197.473 222.588 197.217 222.916C196.964 223.243 196.617 223.499 196.174 223.683C195.735 223.864 195.228 223.954 194.653 223.954C193.777 223.954 193.079 223.772 192.559 223.407C192.042 223.039 191.739 222.54 191.65 221.908L193.455 221.813C193.51 222.08 193.642 222.284 193.852 222.425C194.061 222.563 194.33 222.632 194.657 222.632C194.979 222.632 195.238 222.57 195.433 222.446C195.631 222.32 195.732 222.158 195.735 221.959C195.732 221.793 195.662 221.656 195.524 221.55C195.386 221.441 195.173 221.357 194.886 221.3L193.74 221.072C193.093 220.942 192.612 220.718 192.296 220.399C191.983 220.081 191.826 219.674 191.826 219.18C191.826 218.755 191.941 218.388 192.171 218.081C192.404 217.774 192.73 217.537 193.149 217.37C193.572 217.203 194.066 217.12 194.632 217.12C195.468 217.12 196.125 217.297 196.605 217.65C197.088 218.004 197.369 218.485 197.45 219.094ZM203.401 219.999V223.825H201.565V215H203.349V218.374H203.427C203.576 217.983 203.817 217.677 204.151 217.456C204.484 217.232 204.902 217.12 205.405 217.12C205.864 217.12 206.265 217.221 206.607 217.422C206.952 217.62 207.219 217.906 207.408 218.279C207.601 218.65 207.696 219.094 207.693 219.611V223.825H205.857V219.938C205.86 219.53 205.756 219.213 205.547 218.986C205.34 218.759 205.05 218.646 204.676 218.646C204.426 218.646 204.205 218.699 204.013 218.805C203.823 218.911 203.674 219.066 203.565 219.27C203.458 219.471 203.404 219.714 203.401 219.999ZM212.154 223.954C211.473 223.954 210.887 223.817 210.396 223.541C209.907 223.262 209.531 222.869 209.267 222.36C209.002 221.849 208.87 221.244 208.87 220.546C208.87 219.865 209.002 219.268 209.267 218.753C209.531 218.239 209.903 217.838 210.383 217.551C210.865 217.264 211.431 217.12 212.081 217.12C212.517 217.12 212.924 217.191 213.3 217.331C213.679 217.469 214.01 217.677 214.291 217.956C214.576 218.235 214.797 218.585 214.955 219.008C215.113 219.427 215.192 219.918 215.192 220.481V220.985H209.603V219.848H213.464C213.464 219.584 213.406 219.349 213.291 219.145C213.177 218.941 213.017 218.782 212.813 218.667C212.612 218.549 212.378 218.49 212.111 218.49C211.832 218.49 211.585 218.555 211.37 218.684C211.157 218.811 210.99 218.982 210.87 219.197C210.749 219.41 210.687 219.647 210.684 219.908V220.99C210.684 221.317 210.745 221.6 210.865 221.839C210.989 222.077 211.163 222.261 211.387 222.39C211.611 222.52 211.877 222.584 212.184 222.584C212.388 222.584 212.575 222.555 212.744 222.498C212.914 222.441 213.059 222.354 213.179 222.239C213.3 222.125 213.392 221.984 213.455 221.817L215.153 221.929C215.067 222.337 214.89 222.693 214.623 222.998C214.359 223.299 214.017 223.535 213.597 223.705C213.181 223.871 212.7 223.954 212.154 223.954ZM218.277 223.95C217.855 223.95 217.478 223.877 217.148 223.73C216.818 223.581 216.556 223.361 216.364 223.071C216.174 222.778 216.079 222.413 216.079 221.977C216.079 221.609 216.147 221.3 216.282 221.05C216.417 220.8 216.601 220.599 216.834 220.447C217.066 220.295 217.331 220.18 217.626 220.102C217.925 220.025 218.238 219.97 218.566 219.938C218.951 219.898 219.261 219.861 219.497 219.826C219.732 219.789 219.903 219.734 220.009 219.663C220.116 219.591 220.169 219.484 220.169 219.344V219.318C220.169 219.045 220.083 218.834 219.91 218.684C219.741 218.535 219.499 218.46 219.186 218.46C218.856 218.46 218.593 218.534 218.398 218.68C218.202 218.824 218.073 219.005 218.01 219.223L216.312 219.085C216.398 218.683 216.568 218.335 216.821 218.042C217.073 217.746 217.399 217.519 217.799 217.361C218.201 217.201 218.666 217.12 219.195 217.12C219.563 217.12 219.915 217.163 220.251 217.249C220.59 217.336 220.89 217.469 221.151 217.65C221.416 217.831 221.624 218.064 221.776 218.348C221.928 218.63 222.005 218.967 222.005 219.361V223.825H220.264V222.907H220.212C220.106 223.114 219.963 223.297 219.785 223.455C219.607 223.61 219.393 223.732 219.143 223.821C218.893 223.907 218.605 223.95 218.277 223.95ZM218.803 222.683C219.073 222.683 219.311 222.63 219.518 222.524C219.725 222.415 219.887 222.268 220.005 222.084C220.123 221.9 220.182 221.692 220.182 221.459V220.757C220.124 220.794 220.045 220.829 219.945 220.86C219.847 220.889 219.736 220.917 219.613 220.942C219.489 220.965 219.366 220.987 219.242 221.007C219.119 221.024 219.007 221.04 218.906 221.054C218.691 221.086 218.503 221.136 218.342 221.205C218.181 221.274 218.056 221.368 217.967 221.485C217.878 221.6 217.833 221.744 217.833 221.916C217.833 222.166 217.924 222.357 218.105 222.489C218.289 222.619 218.521 222.683 218.803 222.683ZM225.868 223.933C225.365 223.933 224.91 223.804 224.502 223.545C224.097 223.284 223.775 222.9 223.536 222.395C223.301 221.886 223.183 221.263 223.183 220.524C223.183 219.766 223.305 219.135 223.549 218.633C223.794 218.127 224.118 217.749 224.523 217.499C224.931 217.247 225.378 217.12 225.863 217.12C226.234 217.12 226.543 217.183 226.79 217.31C227.04 217.433 227.241 217.588 227.393 217.775C227.548 217.959 227.666 218.14 227.747 218.318H227.803V215H229.634V223.825H227.824V222.765H227.747C227.66 222.949 227.538 223.131 227.38 223.312C227.225 223.491 227.023 223.638 226.773 223.756C226.526 223.874 226.224 223.933 225.868 223.933ZM226.449 222.472C226.745 222.472 226.995 222.392 227.199 222.231C227.406 222.067 227.564 221.839 227.673 221.546C227.785 221.253 227.841 220.909 227.841 220.516C227.841 220.122 227.787 219.78 227.678 219.49C227.568 219.2 227.41 218.976 227.204 218.818C226.997 218.66 226.745 218.581 226.449 218.581C226.148 218.581 225.894 218.663 225.687 218.827C225.48 218.99 225.323 219.217 225.217 219.507C225.111 219.798 225.058 220.134 225.058 220.516C225.058 220.901 225.111 221.241 225.217 221.537C225.326 221.83 225.483 222.06 225.687 222.226C225.894 222.39 226.148 222.472 226.449 222.472ZM231.143 223.825V217.206H232.979V223.825H231.143ZM232.065 216.353C231.792 216.353 231.558 216.263 231.363 216.082C231.171 215.898 231.074 215.678 231.074 215.422C231.074 215.17 231.171 214.953 231.363 214.772C231.558 214.588 231.792 214.496 232.065 214.496C232.338 214.496 232.571 214.588 232.763 214.772C232.959 214.953 233.056 215.17 233.056 215.422C233.056 215.678 232.959 215.898 232.763 216.082C232.571 216.263 232.338 216.353 232.065 216.353ZM236.285 219.999V223.825H234.449V217.206H236.199V218.374H236.277C236.423 217.989 236.669 217.685 237.013 217.461C237.358 217.234 237.776 217.12 238.267 217.12C238.727 217.12 239.128 217.221 239.47 217.422C239.811 217.623 240.077 217.91 240.267 218.284C240.456 218.654 240.551 219.097 240.551 219.611V223.825H238.716V219.938C238.718 219.533 238.615 219.217 238.405 218.99C238.196 218.76 237.907 218.646 237.539 218.646C237.292 218.646 237.074 218.699 236.884 218.805C236.697 218.911 236.551 219.066 236.445 219.27C236.341 219.471 236.288 219.714 236.285 219.999ZM244.98 226.445C244.385 226.445 243.875 226.363 243.45 226.2C243.028 226.039 242.692 225.819 242.442 225.54C242.192 225.262 242.03 224.948 241.955 224.601L243.653 224.372C243.704 224.505 243.786 224.628 243.898 224.743C244.01 224.858 244.158 224.95 244.342 225.019C244.529 225.091 244.756 225.127 245.023 225.127C245.422 225.127 245.751 225.029 246.01 224.834C246.271 224.641 246.402 224.318 246.402 223.864V222.653H246.324C246.244 222.837 246.123 223.011 245.962 223.175C245.802 223.338 245.595 223.472 245.342 223.575C245.089 223.679 244.787 223.73 244.437 223.73C243.94 223.73 243.488 223.615 243.08 223.386C242.675 223.153 242.351 222.798 242.11 222.321C241.872 221.842 241.752 221.235 241.752 220.503C241.752 219.753 241.874 219.127 242.119 218.624C242.363 218.121 242.687 217.745 243.093 217.495C243.5 217.245 243.947 217.12 244.433 217.12C244.803 217.12 245.114 217.183 245.363 217.31C245.613 217.433 245.814 217.588 245.967 217.775C246.122 217.959 246.241 218.14 246.324 218.318H246.393V217.206H248.216V223.89C248.216 224.453 248.078 224.924 247.802 225.303C247.527 225.682 247.145 225.967 246.656 226.156C246.171 226.349 245.612 226.445 244.98 226.445ZM245.019 222.351C245.315 222.351 245.565 222.278 245.769 222.132C245.975 221.982 246.133 221.77 246.243 221.494C246.355 221.215 246.411 220.882 246.411 220.494C246.411 220.106 246.356 219.77 246.247 219.486C246.138 219.199 245.98 218.976 245.773 218.818C245.566 218.66 245.315 218.581 245.019 218.581C244.717 218.581 244.463 218.663 244.256 218.827C244.049 218.987 243.893 219.212 243.786 219.499C243.68 219.786 243.627 220.118 243.627 220.494C243.627 220.876 243.68 221.207 243.786 221.485C243.895 221.761 244.052 221.975 244.256 222.127C244.463 222.277 244.717 222.351 245.019 222.351ZM252.52 223.825V215H254.356V218.318H254.412C254.492 218.14 254.608 217.959 254.761 217.775C254.916 217.588 255.117 217.433 255.364 217.31C255.614 217.183 255.924 217.12 256.295 217.12C256.777 217.12 257.223 217.247 257.631 217.499C258.039 217.749 258.365 218.127 258.609 218.633C258.853 219.135 258.975 219.766 258.975 220.524C258.975 221.263 258.856 221.886 258.617 222.395C258.382 222.9 258.06 223.284 257.652 223.545C257.247 223.804 256.793 223.933 256.29 223.933C255.934 223.933 255.631 223.874 255.381 223.756C255.134 223.638 254.932 223.491 254.774 223.312C254.616 223.131 254.495 222.949 254.412 222.765H254.33V223.825H252.52ZM254.317 220.516C254.317 220.909 254.371 221.253 254.481 221.546C254.59 221.839 254.748 222.067 254.955 222.231C255.161 222.392 255.413 222.472 255.709 222.472C256.007 222.472 256.26 222.39 256.467 222.226C256.674 222.06 256.831 221.83 256.937 221.537C257.046 221.241 257.101 220.901 257.101 220.516C257.101 220.134 257.047 219.798 256.941 219.507C256.835 219.217 256.678 218.99 256.471 218.827C256.265 218.663 256.01 218.581 255.709 218.581C255.41 218.581 255.157 218.66 254.95 218.818C254.746 218.976 254.59 219.2 254.481 219.49C254.371 219.78 254.317 220.122 254.317 220.516ZM263.216 223.954C262.536 223.954 261.949 223.817 261.458 223.541C260.97 223.262 260.594 222.869 260.329 222.36C260.065 221.849 259.933 221.244 259.933 220.546C259.933 219.865 260.065 219.268 260.329 218.753C260.594 218.239 260.966 217.838 261.445 217.551C261.928 217.264 262.494 217.12 263.143 217.12C263.58 217.12 263.986 217.191 264.363 217.331C264.742 217.469 265.072 217.677 265.354 217.956C265.638 218.235 265.859 218.585 266.017 219.008C266.175 219.427 266.254 219.918 266.254 220.481V220.985H260.665V219.848H264.526C264.526 219.584 264.469 219.349 264.354 219.145C264.239 218.941 264.08 218.782 263.876 218.667C263.675 218.549 263.44 218.49 263.173 218.49C262.895 218.49 262.648 218.555 262.432 218.684C262.219 218.811 262.053 218.982 261.932 219.197C261.812 219.41 261.75 219.647 261.747 219.908V220.99C261.747 221.317 261.807 221.6 261.928 221.839C262.051 222.077 262.225 222.261 262.449 222.39C262.673 222.52 262.939 222.584 263.247 222.584C263.45 222.584 263.637 222.555 263.807 222.498C263.976 222.441 264.121 222.354 264.242 222.239C264.363 222.125 264.455 221.984 264.518 221.817L266.216 221.929C266.129 222.337 265.953 222.693 265.686 222.998C265.421 223.299 265.079 223.535 264.66 223.705C264.243 223.871 263.762 223.954 263.216 223.954ZM271.012 217.206V218.585H266.927V217.206H271.012ZM267.862 223.825V216.728C267.862 216.248 267.955 215.85 268.142 215.534C268.331 215.218 268.59 214.981 268.917 214.823C269.245 214.665 269.617 214.586 270.033 214.586C270.315 214.586 270.572 214.608 270.805 214.651C271.04 214.694 271.216 214.733 271.331 214.767L271.003 216.146C270.931 216.123 270.842 216.102 270.736 216.082C270.632 216.062 270.526 216.051 270.417 216.051C270.147 216.051 269.959 216.115 269.852 216.241C269.746 216.365 269.693 216.538 269.693 216.762V223.825H267.862ZM274.887 223.954C274.217 223.954 273.638 223.812 273.15 223.528C272.665 223.241 272.29 222.841 272.025 222.33C271.761 221.816 271.629 221.22 271.629 220.542C271.629 219.858 271.761 219.26 272.025 218.749C272.29 218.235 272.665 217.835 273.15 217.551C273.638 217.264 274.217 217.12 274.887 217.12C275.556 217.12 276.133 217.264 276.619 217.551C277.107 217.835 277.484 218.235 277.748 218.749C278.012 219.26 278.144 219.858 278.144 220.542C278.144 221.22 278.012 221.816 277.748 222.33C277.484 222.841 277.107 223.241 276.619 223.528C276.133 223.812 275.556 223.954 274.887 223.954ZM274.895 222.532C275.2 222.532 275.454 222.446 275.658 222.274C275.862 222.099 276.016 221.86 276.119 221.559C276.225 221.257 276.279 220.914 276.279 220.529C276.279 220.144 276.225 219.8 276.119 219.499C276.016 219.197 275.862 218.959 275.658 218.783C275.454 218.608 275.2 218.521 274.895 218.521C274.588 218.521 274.329 218.608 274.12 218.783C273.913 218.959 273.756 219.197 273.65 219.499C273.546 219.8 273.495 220.144 273.495 220.529C273.495 220.914 273.546 221.257 273.65 221.559C273.756 221.86 273.913 222.099 274.12 222.274C274.329 222.446 274.588 222.532 274.895 222.532ZM279.338 223.825V217.206H281.118V218.361H281.187C281.307 217.95 281.51 217.64 281.794 217.43C282.079 217.218 282.406 217.112 282.777 217.112C282.869 217.112 282.968 217.117 283.074 217.129C283.18 217.14 283.274 217.156 283.354 217.176V218.805C283.268 218.779 283.149 218.756 282.996 218.736C282.844 218.716 282.705 218.706 282.579 218.706C282.308 218.706 282.067 218.765 281.855 218.883C281.645 218.997 281.478 219.158 281.355 219.365C281.234 219.572 281.174 219.81 281.174 220.081V223.825H279.338ZM287.012 223.954C286.331 223.954 285.745 223.817 285.253 223.541C284.765 223.262 284.389 222.869 284.124 222.36C283.86 221.849 283.728 221.244 283.728 220.546C283.728 219.865 283.86 219.268 284.124 218.753C284.389 218.239 284.761 217.838 285.24 217.551C285.723 217.264 286.289 217.12 286.938 217.12C287.375 217.12 287.781 217.191 288.158 217.331C288.537 217.469 288.867 217.677 289.149 217.956C289.433 218.235 289.655 218.585 289.813 219.008C289.971 219.427 290.05 219.918 290.05 220.481V220.985H284.461V219.848H288.322C288.322 219.584 288.264 219.349 288.149 219.145C288.034 218.941 287.875 218.782 287.671 218.667C287.47 218.549 287.236 218.49 286.968 218.49C286.69 218.49 286.443 218.555 286.227 218.684C286.015 218.811 285.848 218.982 285.727 219.197C285.607 219.41 285.545 219.647 285.542 219.908V220.99C285.542 221.317 285.602 221.6 285.723 221.839C285.847 222.077 286.02 222.261 286.245 222.39C286.469 222.52 286.734 222.584 287.042 222.584C287.246 222.584 287.432 222.555 287.602 222.498C287.771 222.441 287.916 222.354 288.037 222.239C288.158 222.125 288.25 221.984 288.313 221.817L290.011 221.929C289.925 222.337 289.748 222.693 289.481 222.998C289.216 223.299 288.875 223.535 288.455 223.705C288.039 223.871 287.557 223.954 287.012 223.954ZM295.892 215V223.825H294.056V215H295.892ZM299.25 223.95C298.827 223.95 298.451 223.877 298.121 223.73C297.79 223.581 297.529 223.361 297.336 223.071C297.147 222.778 297.052 222.413 297.052 221.977C297.052 221.609 297.119 221.3 297.254 221.05C297.389 220.8 297.573 220.599 297.806 220.447C298.039 220.295 298.303 220.18 298.599 220.102C298.898 220.025 299.211 219.97 299.538 219.938C299.923 219.898 300.234 219.861 300.469 219.826C300.705 219.789 300.876 219.734 300.982 219.663C301.088 219.591 301.141 219.484 301.141 219.344V219.318C301.141 219.045 301.055 218.834 300.883 218.684C300.713 218.535 300.472 218.46 300.159 218.46C299.828 218.46 299.566 218.534 299.37 218.68C299.175 218.824 299.046 219.005 298.982 219.223L297.285 219.085C297.371 218.683 297.54 218.335 297.793 218.042C298.046 217.746 298.372 217.519 298.771 217.361C299.173 217.201 299.639 217.12 300.167 217.12C300.535 217.12 300.887 217.163 301.223 217.249C301.562 217.336 301.862 217.469 302.124 217.65C302.388 217.831 302.596 218.064 302.749 218.348C302.901 218.63 302.977 218.967 302.977 219.361V223.825H301.236V222.907H301.184C301.078 223.114 300.936 223.297 300.758 223.455C300.58 223.61 300.366 223.732 300.116 223.821C299.866 223.907 299.577 223.95 299.25 223.95ZM299.775 222.683C300.045 222.683 300.284 222.63 300.491 222.524C300.697 222.415 300.86 222.268 300.978 222.084C301.095 221.9 301.154 221.692 301.154 221.459V220.757C301.097 220.794 301.018 220.829 300.917 220.86C300.82 220.889 300.709 220.917 300.585 220.942C300.462 220.965 300.338 220.987 300.215 221.007C300.091 221.024 299.979 221.04 299.879 221.054C299.663 221.086 299.475 221.136 299.314 221.205C299.153 221.274 299.028 221.368 298.939 221.485C298.85 221.6 298.806 221.744 298.806 221.916C298.806 222.166 298.896 222.357 299.077 222.489C299.261 222.619 299.494 222.683 299.775 222.683ZM308.646 221.007V217.206H310.481V223.825H308.719V222.623H308.65C308.501 223.011 308.252 223.322 307.905 223.558C307.56 223.794 307.139 223.911 306.642 223.911C306.2 223.911 305.81 223.811 305.474 223.61C305.138 223.409 304.875 223.123 304.686 222.752C304.499 222.382 304.404 221.938 304.401 221.421V217.206H306.237V221.093C306.24 221.484 306.345 221.793 306.551 222.02C306.758 222.247 307.036 222.36 307.383 222.36C307.604 222.36 307.811 222.31 308.004 222.209C308.196 222.106 308.351 221.954 308.469 221.752C308.59 221.551 308.649 221.303 308.646 221.007ZM313.786 219.999V223.825H311.95V217.206H313.699V218.374H313.777C313.923 217.989 314.169 217.685 314.514 217.461C314.858 217.234 315.276 217.12 315.768 217.12C316.227 217.12 316.628 217.221 316.97 217.422C317.312 217.623 317.578 217.91 317.767 218.284C317.957 218.654 318.052 219.097 318.052 219.611V223.825H316.216V219.938C316.219 219.533 316.115 219.217 315.906 218.99C315.696 218.76 315.407 218.646 315.039 218.646C314.792 218.646 314.574 218.699 314.384 218.805C314.198 218.911 314.051 219.066 313.945 219.27C313.842 219.471 313.788 219.714 313.786 219.999ZM322.489 223.954C321.811 223.954 321.228 223.811 320.739 223.524C320.254 223.233 319.88 222.831 319.619 222.317C319.36 221.803 319.231 221.211 319.231 220.542C319.231 219.864 319.362 219.269 319.623 218.758C319.888 218.243 320.263 217.843 320.748 217.555C321.234 217.265 321.811 217.12 322.48 217.12C323.058 217.12 323.563 217.225 323.997 217.435C324.431 217.644 324.774 217.939 325.027 218.318C325.28 218.697 325.419 219.143 325.445 219.654H323.713C323.664 219.324 323.535 219.058 323.325 218.857C323.118 218.653 322.847 218.551 322.51 218.551C322.226 218.551 321.978 218.628 321.765 218.783C321.555 218.936 321.392 219.158 321.274 219.451C321.156 219.744 321.097 220.099 321.097 220.516C321.097 220.938 321.155 221.297 321.269 221.593C321.387 221.889 321.552 222.114 321.765 222.27C321.978 222.425 322.226 222.502 322.51 222.502C322.72 222.502 322.908 222.459 323.075 222.373C323.244 222.287 323.384 222.162 323.493 221.998C323.605 221.831 323.678 221.632 323.713 221.399H325.445C325.416 221.905 325.278 222.35 325.031 222.735C324.787 223.117 324.45 223.416 324.019 223.631C323.588 223.847 323.078 223.954 322.489 223.954ZM328.456 219.999V223.825H326.62V215H328.404V218.374H328.482C328.631 217.983 328.873 217.677 329.206 217.456C329.539 217.232 329.957 217.12 330.46 217.12C330.919 217.12 331.32 217.221 331.662 217.422C332.007 217.62 332.274 217.906 332.464 218.279C332.656 218.65 332.751 219.094 332.748 219.611V223.825H330.912V219.938C330.915 219.53 330.812 219.213 330.602 218.986C330.395 218.759 330.105 218.646 329.732 218.646C329.482 218.646 329.26 218.699 329.068 218.805C328.878 218.911 328.729 219.066 328.62 219.27C328.514 219.471 328.459 219.714 328.456 219.999Z" fill="white"/>
<g filter="url(#filter1_dd_132_811)">
<g filter="url(#filter2_dd_132_811)">
<rect x="49.2565" y="274.936" width="63.1795" height="25.0897" rx="7.28077" fill="#EF4444"/>
<rect x="49.8633" y="275.543" width="61.966" height="23.8763" rx="6.67404" stroke="#F87171" stroke-width="1.21346"/>
<path d="M63.8272 285.694C63.7927 285.346 63.6447 285.076 63.3833 284.884C63.1219 284.691 62.7671 284.595 62.3189 284.595C62.0144 284.595 61.7573 284.638 61.5476 284.724C61.3379 284.808 61.177 284.924 61.065 285.073C60.9558 285.223 60.9012 285.392 60.9012 285.582C60.8955 285.74 60.9285 285.878 61.0003 285.996C61.075 286.113 61.177 286.215 61.3063 286.301C61.4356 286.385 61.5849 286.458 61.7544 286.521C61.9239 286.582 62.1049 286.633 62.2974 286.676L63.0903 286.866C63.4752 286.952 63.8286 287.067 64.1503 287.211C64.4721 287.354 64.7508 287.531 64.9863 287.741C65.2219 287.95 65.4043 288.198 65.5336 288.482C65.6657 288.766 65.7332 289.092 65.7361 289.46C65.7332 290 65.5953 290.468 65.3224 290.865C65.0524 291.258 64.6617 291.564 64.1503 291.783C63.6419 291.998 63.0285 292.106 62.3103 292.106C61.5979 292.106 60.9774 291.997 60.4488 291.778C59.923 291.56 59.5122 291.237 59.2163 290.809C58.9233 290.378 58.7696 289.845 58.7553 289.21H60.5608C60.5809 289.506 60.6657 289.753 60.815 289.951C60.9673 290.147 61.1698 290.295 61.4226 290.395C61.6783 290.493 61.967 290.542 62.2888 290.542C62.6048 290.542 62.8791 290.496 63.1118 290.404C63.3474 290.312 63.5298 290.184 63.6591 290.02C63.7884 289.857 63.853 289.668 63.853 289.456C63.853 289.258 63.7941 289.091 63.6763 288.956C63.5614 288.821 63.3919 288.706 63.1679 288.611C62.9466 288.516 62.6752 288.43 62.3534 288.353L61.3925 288.111C60.6484 287.93 60.0609 287.647 59.63 287.262C59.1991 286.877 58.9851 286.359 58.988 285.707C58.9851 285.172 59.1273 284.706 59.4146 284.306C59.7047 283.907 60.1026 283.595 60.6082 283.371C61.1138 283.147 61.6884 283.035 62.3319 283.035C62.9869 283.035 63.5585 283.147 64.0469 283.371C64.5382 283.595 64.9202 283.907 65.1932 284.306C65.4661 284.706 65.6068 285.168 65.6155 285.694H63.8272ZM69.9472 292.11C69.2779 292.11 68.699 291.968 68.2107 291.684C67.7252 291.396 67.3503 290.997 67.086 290.486C66.8217 289.971 66.6895 289.375 66.6895 288.697C66.6895 288.014 66.8217 287.416 67.086 286.905C67.3503 286.391 67.7252 285.991 68.2107 285.707C68.699 285.42 69.2779 285.276 69.9472 285.276C70.6166 285.276 71.194 285.42 71.6795 285.707C72.1679 285.991 72.5442 286.391 72.8085 286.905C73.0728 287.416 73.205 288.014 73.205 288.697C73.205 289.375 73.0728 289.971 72.8085 290.486C72.5442 290.997 72.1679 291.396 71.6795 291.684C71.194 291.968 70.6166 292.11 69.9472 292.11ZM69.9559 290.688C70.2604 290.688 70.5146 290.602 70.7186 290.43C70.9226 290.254 71.0762 290.016 71.1797 289.714C71.286 289.413 71.3391 289.069 71.3391 288.684C71.3391 288.299 71.286 287.956 71.1797 287.655C71.0762 287.353 70.9226 287.114 70.7186 286.939C70.5146 286.764 70.2604 286.676 69.9559 286.676C69.6485 286.676 69.3899 286.764 69.1802 286.939C68.9734 287.114 68.8168 287.353 68.7105 287.655C68.6071 287.956 68.5554 288.299 68.5554 288.684C68.5554 289.069 68.6071 289.413 68.7105 289.714C68.8168 290.016 68.9734 290.254 69.1802 290.43C69.3899 290.602 69.6485 290.688 69.9559 290.688ZM77.958 285.362V286.741H73.8729V285.362H77.958ZM74.808 291.981V284.884C74.808 284.404 74.9014 284.006 75.0881 283.69C75.2777 283.374 75.5362 283.137 75.8637 282.979C76.1912 282.821 76.5633 282.742 76.9798 282.742C77.2613 282.742 77.5185 282.764 77.7512 282.807C77.9867 282.85 78.162 282.889 78.2769 282.923L77.9494 284.302C77.8776 284.279 77.7885 284.257 77.6822 284.237C77.5788 284.217 77.4725 284.207 77.3633 284.207C77.0933 284.207 76.9051 284.27 76.7988 284.397C76.6925 284.52 76.6394 284.694 76.6394 284.918V291.981H74.808ZM79.0794 291.981V285.362H80.9152V291.981H79.0794ZM80.0016 284.509C79.7287 284.509 79.4946 284.418 79.2992 284.237C79.1067 284.054 79.0105 283.834 79.0105 283.578C79.0105 283.325 79.1067 283.108 79.2992 282.927C79.4946 282.744 79.7287 282.652 80.0016 282.652C80.2745 282.652 80.5072 282.744 80.6997 282.927C80.895 283.108 80.9927 283.325 80.9927 283.578C80.9927 283.834 80.895 284.054 80.6997 284.237C80.5072 284.418 80.2745 284.509 80.0016 284.509ZM84.2731 292.106C83.8508 292.106 83.4744 292.033 83.1441 291.886C82.8137 291.737 82.5523 291.517 82.3598 291.227C82.1702 290.934 82.0754 290.569 82.0754 290.132C82.0754 289.765 82.1429 289.456 82.2779 289.206C82.413 288.956 82.5968 288.755 82.8295 288.603C83.0622 288.45 83.3265 288.335 83.6224 288.258C83.9212 288.18 84.2343 288.126 84.5618 288.094C84.9467 288.054 85.257 288.017 85.4926 287.982C85.7281 287.945 85.8991 287.89 86.0054 287.818C86.1117 287.746 86.1648 287.64 86.1648 287.499V287.474C86.1648 287.201 86.0786 286.99 85.9062 286.84C85.7368 286.691 85.4954 286.616 85.1823 286.616C84.8519 286.616 84.5891 286.689 84.3937 286.836C84.1984 286.979 84.0691 287.16 84.0059 287.379L82.3081 287.241C82.3943 286.839 82.5638 286.491 82.8166 286.198C83.0694 285.902 83.3954 285.675 83.7948 285.517C84.1969 285.356 84.6623 285.276 85.1909 285.276C85.5586 285.276 85.9106 285.319 86.2467 285.405C86.5857 285.491 86.8859 285.625 87.1473 285.806C87.4116 285.987 87.6199 286.22 87.7721 286.504C87.9244 286.786 88.0005 287.123 88.0005 287.517V291.981H86.2596V291.063H86.2079C86.1016 291.27 85.9594 291.452 85.7813 291.61C85.6032 291.765 85.3891 291.888 85.1392 291.977C84.8893 292.063 84.6006 292.106 84.2731 292.106ZM84.7988 290.839C85.0688 290.839 85.3073 290.786 85.5141 290.68C85.721 290.57 85.8833 290.424 86.0011 290.24C86.1188 290.056 86.1777 289.848 86.1777 289.615V288.913C86.1203 288.95 86.0413 288.985 85.9407 289.016C85.843 289.045 85.7324 289.072 85.6089 289.098C85.4854 289.121 85.3619 289.143 85.2383 289.163C85.1148 289.18 85.0028 289.196 84.9022 289.21C84.6868 289.242 84.4986 289.292 84.3377 289.361C84.1768 289.43 84.0519 289.523 83.9628 289.641C83.8738 289.756 83.8292 289.9 83.8292 290.072C83.8292 290.322 83.9197 290.513 84.1007 290.645C84.2846 290.774 84.5173 290.839 84.7988 290.839ZM98.1195 286.008C98.0592 285.799 97.9744 285.613 97.8653 285.453C97.7561 285.289 97.6225 285.151 97.4645 285.039C97.3094 284.924 97.1313 284.836 96.9302 284.776C96.732 284.716 96.5122 284.686 96.2709 284.686C95.8198 284.686 95.4234 284.798 95.0815 285.022C94.7426 285.246 94.4783 285.572 94.2887 286C94.0991 286.425 94.0043 286.945 94.0043 287.56C94.0043 288.175 94.0976 288.697 94.2843 289.128C94.4711 289.559 94.7354 289.888 95.0772 290.115C95.4191 290.339 95.8227 290.451 96.2881 290.451C96.7104 290.451 97.0709 290.377 97.3697 290.227C97.6714 290.075 97.9012 289.861 98.0592 289.585C98.2201 289.309 98.3005 288.983 98.3005 288.607L98.6797 288.663H96.4045V287.258H100.097V288.37C100.097 289.146 99.9337 289.812 99.6062 290.369C99.2787 290.924 98.8276 291.352 98.2531 291.653C97.6785 291.952 97.0207 292.102 96.2795 292.102C95.4521 292.102 94.7253 291.919 94.0991 291.554C93.4728 291.187 92.9844 290.665 92.6339 289.99C92.2863 289.312 92.1125 288.508 92.1125 287.577C92.1125 286.862 92.2159 286.224 92.4228 285.664C92.6325 285.101 92.9255 284.624 93.3019 284.233C93.6782 283.842 94.1163 283.545 94.6162 283.341C95.116 283.137 95.6575 283.035 96.2407 283.035C96.7406 283.035 97.206 283.108 97.6369 283.255C98.0678 283.399 98.4499 283.602 98.7831 283.867C99.1192 284.131 99.3936 284.446 99.6062 284.811C99.8188 285.172 99.9552 285.572 100.016 286.008H98.1195ZM102.537 292.093C102.253 292.093 102.009 291.992 101.805 291.791C101.604 291.587 101.503 291.343 101.503 291.059C101.503 290.777 101.604 290.536 101.805 290.335C102.009 290.134 102.253 290.033 102.537 290.033C102.813 290.033 103.055 290.134 103.261 290.335C103.468 290.536 103.572 290.777 103.572 291.059C103.572 291.248 103.523 291.422 103.425 291.58C103.33 291.735 103.205 291.86 103.05 291.955C102.895 292.047 102.724 292.093 102.537 292.093Z" fill="#FAFAFA"/>
</g>
<path d="M116.555 255.22L103.354 268.421C102.589 269.186 103.131 270.493 104.212 270.493H110.437C111.081 270.493 111.698 270.748 112.153 271.204L116.555 275.605C117.319 276.37 118.626 275.828 118.626 274.747V256.078C118.626 254.997 117.319 254.456 116.555 255.22Z" fill="#EF4444" stroke="#F87171" stroke-width="1.21346"/>
</g>
<g opacity="0.5">
<g opacity="0.7" filter="url(#filter3_f_132_811)">
<circle cx="182.019" cy="182.019" r="182.019" transform="matrix(-1 0 0 1 465.878 145.136)" fill="#EF4444" fill-opacity="0.6"/>
</g>
</g>
<defs>
<filter id="filter0_dd_132_811" x="289.927" y="414.026" width="102.133" height="86.2207" filterUnits="userSpaceOnUse" color-interpolation-filters="sRGB">
<feFlood flood-opacity="0" result="BackgroundImageFix"/>
<feColorMatrix in="SourceAlpha" type="matrix" values="0 0 0 0 0 0 0 0 0 0 0 0 0 0 0 0 0 0 127 0" result="hardAlpha"/>
<feMorphology radius="5.05609" operator="erode" in="SourceAlpha" result="effect1_dropShadow_132_811"/>
<feOffset dy="20.2244"/>
<feGaussianBlur stdDeviation="12.6402"/>
<feComposite in2="hardAlpha" operator="out"/>
<feColorMatrix type="matrix" values="0 0 0 0 0 0 0 0 0 0 0 0 0 0 0 0 0 0 0.1 0"/>
<feBlend mode="normal" in2="BackgroundImageFix" result="effect1_dropShadow_132_811"/>
<feColorMatrix in="SourceAlpha" type="matrix" values="0 0 0 0 0 0 0 0 0 0 0 0 0 0 0 0 0 0 127 0" result="hardAlpha"/>
<feMorphology radius="6.06731" operator="erode" in="SourceAlpha" result="effect2_dropShadow_132_811"/>
<feOffset dy="8.08974"/>
<feGaussianBlur stdDeviation="5.05609"/>
<feComposite in2="hardAlpha" operator="out"/>
<feColorMatrix type="matrix" values="0 0 0 0 0 0 0 0 0 0 0 0 0 0 0 0 0 0 0.1 0"/>
<feBlend mode="normal" in2="effect1_dropShadow_132_811" result="effect2_dropShadow_132_811"/>
<feBlend mode="normal" in="SourceGraphic" in2="effect2_dropShadow_132_811" result="shape"/>
</filter>
<filter id="filter1_dd_132_811" x="29.0322" y="254.254" width="110.425" height="86.2202" filterUnits="userSpaceOnUse" color-interpolation-filters="sRGB">
<feFlood flood-opacity="0" result="BackgroundImageFix"/>
<feColorMatrix in="SourceAlpha" type="matrix" values="0 0 0 0 0 0 0 0 0 0 0 0 0 0 0 0 0 0 127 0" result="hardAlpha"/>
<feMorphology radius="5.05609" operator="erode" in="SourceAlpha" result="effect1_dropShadow_132_811"/>
<feOffset dy="20.2244"/>
<feGaussianBlur stdDeviation="12.6402"/>
<feComposite in2="hardAlpha" operator="out"/>
<feColorMatrix type="matrix" values="0 0 0 0 0 0 0 0 0 0 0 0 0 0 0 0 0 0 0.1 0"/>
<feBlend mode="normal" in2="BackgroundImageFix" result="effect1_dropShadow_132_811"/>
<feColorMatrix in="SourceAlpha" type="matrix" values="0 0 0 0 0 0 0 0 0 0 0 0 0 0 0 0 0 0 127 0" result="hardAlpha"/>
<feMorphology radius="6.06731" operator="erode" in="SourceAlpha" result="effect2_dropShadow_132_811"/>
<feOffset dy="8.08974"/>
<feGaussianBlur stdDeviation="5.05609"/>
<feComposite in2="hardAlpha" operator="out"/>
<feColorMatrix type="matrix" values="0 0 0 0 0 0 0 0 0 0 0 0 0 0 0 0 0 0 0.1 0"/>
<feBlend mode="normal" in2="effect1_dropShadow_132_811" result="effect2_dropShadow_132_811"/>
<feBlend mode="normal" in="SourceGraphic" in2="effect2_dropShadow_132_811" result="shape"/>
</filter>
<filter id="filter2_dd_132_811" x="-14.7435" y="210.936" width="191.18" height="153.09" filterUnits="userSpaceOnUse" color-interpolation-filters="sRGB">
<feFlood flood-opacity="0" result="BackgroundImageFix"/>
<feColorMatrix in="SourceAlpha" type="matrix" values="0 0 0 0 0 0 0 0 0 0 0 0 0 0 0 0 0 0 127 0" result="hardAlpha"/>
<feOffset/>
<feGaussianBlur stdDeviation="32"/>
<feColorMatrix type="matrix" values="0 0 0 0 0.992157 0 0 0 0 0.729412 0 0 0 0 0.454902 0 0 0 1 0"/>
<feBlend mode="normal" in2="BackgroundImageFix" result="effect1_dropShadow_132_811"/>
<feColorMatrix in="SourceAlpha" type="matrix" values="0 0 0 0 0 0 0 0 0 0 0 0 0 0 0 0 0 0 127 0" result="hardAlpha"/>
<feOffset/>
<feGaussianBlur stdDeviation="4"/>
<feColorMatrix type="matrix" values="0 0 0 0 0.992157 0 0 0 0 0.729412 0 0 0 0 0.454902 0 0 0 0.5 0"/>
<feBlend mode="normal" in2="effect1_dropShadow_132_811" result="effect2_dropShadow_132_811"/>
<feBlend mode="normal" in="SourceGraphic" in2="effect2_dropShadow_132_811" result="shape"/>
</filter>
<filter id="filter3_f_132_811" x="-302.648" y="-259.351" width="1173.01" height="1173.01" filterUnits="userSpaceOnUse" color-interpolation-filters="sRGB">
<feFlood flood-opacity="0" result="BackgroundImageFix"/>
<feBlend mode="normal" in="SourceGraphic" in2="BackgroundImageFix" result="shape"/>
<feGaussianBlur stdDeviation="202.244" result="effect1_foregroundBlur_132_811"/>
</filter>
<linearGradient id="paint0_linear_132_811" x1="386.827" y1="376.474" x2="386.827" y2="343.294" gradientUnits="userSpaceOnUse">
<stop stop-opacity="0.05"/>
<stop offset="1" stop-opacity="0.1"/>
</linearGradient>
<linearGradient id="paint1_linear_132_811" x1="386.827" y1="343.294" x2="386.827" y2="376.474" gradientUnits="userSpaceOnUse">
<stop stop-color="#FAFAFA" stop-opacity="0.2"/>
<stop offset="0.16" stop-color="#FAFAFA" stop-opacity="0.05"/>
<stop offset="0.86" stop-color="#FAFAFA" stop-opacity="0.05"/>
<stop offset="1" stop-color="white" stop-opacity="0"/>
</linearGradient>
<linearGradient id="paint2_linear_132_811" x1="488.327" y1="416.923" x2="488.327" y2="383.743" gradientUnits="userSpaceOnUse">
<stop stop-opacity="0.05"/>
<stop offset="1" stop-opacity="0.1"/>
</linearGradient>
<linearGradient id="paint3_linear_132_811" x1="488.327" y1="383.743" x2="488.327" y2="416.923" gradientUnits="userSpaceOnUse">
<stop stop-color="#FAFAFA" stop-opacity="0.2"/>
<stop offset="0.16" stop-color="#FAFAFA" stop-opacity="0.05"/>
<stop offset="0.86" stop-color="#FAFAFA" stop-opacity="0.05"/>
<stop offset="1" stop-color="white" stop-opacity="0"/>
</linearGradient>
<linearGradient id="paint4_linear_132_811" x1="197.891" y1="235.915" x2="197.891" y2="202.735" gradientUnits="userSpaceOnUse">
<stop stop-opacity="0.05"/>
<stop offset="1" stop-opacity="0.1"/>
</linearGradient>
<linearGradient id="paint5_linear_132_811" x1="197.891" y1="202.735" x2="197.891" y2="235.915" gradientUnits="userSpaceOnUse">
<stop stop-color="#FAFAFA" stop-opacity="0.2"/>
<stop offset="0.16" stop-color="#FAFAFA" stop-opacity="0.05"/>
<stop offset="0.86" stop-color="#FAFAFA" stop-opacity="0.05"/>
<stop offset="1" stop-color="white" stop-opacity="0"/>
</linearGradient>
</defs>
</svg>
